<?xml version="1.0" encoding="UTF-8" standalone="no"?>
<!DOCTYPE svg PUBLIC "-//W3C//DTD SVG 1.1//EN"
 "http://www.w3.org/Graphics/SVG/1.1/DTD/svg11.dtd">
<!-- Generated by graphviz version 2.26.3 (20100126.1600)
 -->
<!-- Title: new&#45;sepia&#45;network Pages: 1 -->
<svg width="667pt" height="804pt"
 viewBox="0.00 0.00 667.00 804.00" xmlns="http://www.w3.org/2000/svg" xmlns:xlink="http://www.w3.org/1999/xlink">
<g id="graph1" class="graph" transform="scale(1 1) rotate(0) translate(4 800)">
<title>new&#45;sepia&#45;network</title>
<polygon fill="white" stroke="white" points="-4,5 -4,-800 664,-800 664,5 -4,5"/>
<g id="graph3" class="cluster"><title>cluster_dh_managed</title>
<polygon fill="none" stroke="#858585" stroke-dasharray="1,5" points="153,-8 153,-172 273,-172 273,-8 153,-8"/>
<text text-anchor="middle" x="213" y="-155.4" font-family="Times Roman,serif" font-size="14.00">DH managed</text>
</g>
<!-- plana -->
<g id="node1" class="node"><title>plana</title>
<polygon fill="none" stroke="black" points="153.5,-513 153.5,-643 290.5,-643 290.5,-513 153.5,-513"/>
<text text-anchor="middle" x="196" y="-574.4" font-family="Times Roman,serif" font-size="14.00">96x plana</text>
<polyline fill="none" stroke="black" points="238.5,-513 238.5,-643 "/>
<text text-anchor="middle" x="264.5" y="-626.4" font-family="Times Roman,serif" font-size="14.00">10g1</text>
<polyline fill="none" stroke="black" points="238.5,-617 290.5,-617 "/>
<text text-anchor="middle" x="264.5" y="-600.4" font-family="Times Roman,serif" font-size="14.00">10g2</text>
<polyline fill="none" stroke="black" points="238.5,-591 290.5,-591 "/>
<text text-anchor="middle" x="264.5" y="-574.4" font-family="Times Roman,serif" font-size="14.00">1g1</text>
<polyline fill="none" stroke="black" points="238.5,-565 290.5,-565 "/>
<text text-anchor="middle" x="264.5" y="-548.4" font-family="Times Roman,serif" font-size="14.00">1g2</text>
<polyline fill="none" stroke="black" points="238.5,-539 290.5,-539 "/>
<text text-anchor="middle" x="264.5" y="-522.4" font-family="Times Roman,serif" font-size="14.00">ipmi</text>
</g>
<!-- world -->
<g id="node9" class="node"><title>world</title>
<polygon fill="none" stroke="black" points="-0.5,-235 -0.5,-271 592.5,-271 592.5,-235 -0.5,-235"/>
<text text-anchor="middle" x="47.5" y="-249.4" font-family="Times Roman,serif" font-size="14.00">4948 world</text>
<polyline fill="none" stroke="black" points="95.5,-235 95.5,-271 "/>
<text text-anchor="middle" x="123.5" y="-249.4" font-family="Times Roman,serif" font-size="14.00">public</text>
<polyline fill="none" stroke="black" points="151.5,-235 151.5,-271 "/>
<text text-anchor="middle" x="176.5" y="-249.4" font-family="Times Roman,serif" font-size="14.00">front</text>
<polyline fill="none" stroke="black" points="201.5,-235 201.5,-271 "/>
<text text-anchor="middle" x="225.5" y="-249.4" font-family="Times Roman,serif" font-size="14.00">back</text>
<polyline fill="none" stroke="black" points="249.5,-235 249.5,-271 "/>
<text text-anchor="middle" x="292" y="-249.4" font-family="Times Roman,serif" font-size="14.00">sepia ipmi</text>
<polyline fill="none" stroke="black" points="334.5,-235 334.5,-271 "/>
<text text-anchor="middle" x="365.5" y="-249.4" font-family="Times Roman,serif" font-size="14.00">rescue</text>
<polyline fill="none" stroke="black" points="396.5,-235 396.5,-271 "/>
<text text-anchor="middle" x="466.5" y="-249.4" font-family="Times Roman,serif" font-size="14.00">switch mgmt vlan</text>
<polyline fill="none" stroke="black" points="536.5,-235 536.5,-271 "/>
<text text-anchor="middle" x="564.5" y="-249.4" font-family="Times Roman,serif" font-size="14.00">mgmt</text>
</g>
<!-- plana&#45;&gt;world -->
<g id="edge56" class="edge"><title>plana:1g2&#45;&gt;world:rescue</title>
<path fill="none" stroke="brown" d="M292,-552C309.561,-552 301.905,-526.265 291,-512.5 270.031,-486.031 164.633,-500.732 144,-474 133.681,-460.63 140.947,-452.611 144,-436 157.779,-361.029 165.683,-323.813 234,-290 260.56,-276.854 366,-300.636 366,-271"/>
</g>
<!-- slow -->
<g id="node14" class="node"><title>slow</title>
<polygon fill="none" stroke="black" points="342.5,-437 342.5,-473 555.5,-473 555.5,-437 342.5,-437"/>
<text text-anchor="middle" x="396" y="-451.4" font-family="Times Roman,serif" font-size="14.00">4x 2960g tor</text>
<polyline fill="none" stroke="black" points="449.5,-437 449.5,-473 "/>
<text text-anchor="middle" x="474.5" y="-451.4" font-family="Times Roman,serif" font-size="14.00">front</text>
<polyline fill="none" stroke="black" points="499.5,-437 499.5,-473 "/>
<text text-anchor="middle" x="527.5" y="-451.4" font-family="Times Roman,serif" font-size="14.00">mgmt</text>
</g>
<!-- plana&#45;&gt;slow -->
<g id="edge38" class="edge"><title>plana:1g1&#45;&gt;slow:front</title>
<path fill="none" stroke="green" d="M292,-578C322.525,-578 288.916,-533.073 311,-512 365.203,-460.277 475,-547.922 475,-473"/>
</g>
<!-- ipmi -->
<g id="node16" class="node"><title>ipmi</title>
<polygon fill="none" stroke="black" points="153,-437 153,-473 325,-473 325,-437 153,-437"/>
<text text-anchor="middle" x="211" y="-451.4" font-family="Times Roman,serif" font-size="14.00">4x 2960g ipmi</text>
<polyline fill="none" stroke="black" points="269,-437 269,-473 "/>
<text text-anchor="middle" x="297" y="-451.4" font-family="Times Roman,serif" font-size="14.00">mgmt</text>
</g>
<!-- plana&#45;&gt;ipmi -->
<g id="edge17" class="edge"><title>plana:ipmi&#45;&gt;ipmi:sepia_ipmi</title>
<path fill="none" stroke="blue" d="M265,-513C265,-483.133 211,-502.867 211,-473"/>
</g>
<!-- burnupi -->
<g id="node2" class="node"><title>burnupi</title>
<polygon fill="none" stroke="black" points="319.5,-513 319.5,-643 472.5,-643 472.5,-513 319.5,-513"/>
<text text-anchor="middle" x="370" y="-574.4" font-family="Times Roman,serif" font-size="14.00">64x burnupi</text>
<polyline fill="none" stroke="black" points="420.5,-513 420.5,-643 "/>
<text text-anchor="middle" x="446.5" y="-626.4" font-family="Times Roman,serif" font-size="14.00">10g1</text>
<polyline fill="none" stroke="black" points="420.5,-617 472.5,-617 "/>
<text text-anchor="middle" x="446.5" y="-600.4" font-family="Times Roman,serif" font-size="14.00">10g2</text>
<polyline fill="none" stroke="black" points="420.5,-591 472.5,-591 "/>
<text text-anchor="middle" x="446.5" y="-574.4" font-family="Times Roman,serif" font-size="14.00">1g1</text>
<polyline fill="none" stroke="black" points="420.5,-565 472.5,-565 "/>
<text text-anchor="middle" x="446.5" y="-548.4" font-family="Times Roman,serif" font-size="14.00">1g2</text>
<polyline fill="none" stroke="black" points="420.5,-539 472.5,-539 "/>
<text text-anchor="middle" x="446.5" y="-522.4" font-family="Times Roman,serif" font-size="14.00">ipmi</text>
</g>
<!-- burnupi&#45;&gt;world -->
<g id="edge58" class="edge"><title>burnupi:1g2&#45;&gt;world:rescue</title>
<path fill="none" stroke="brown" d="M474,-552C539.253,-552 582.105,-498.691 564,-436 542.72,-362.314 535.605,-332.858 472,-290 452.154,-276.627 366,-294.931 366,-271"/>
</g>
<!-- burnupi&#45;&gt;slow -->
<g id="edge40" class="edge"><title>burnupi:1g1&#45;&gt;slow:front</title>
<path fill="none" stroke="green" d="M474,-578C520.669,-578 475,-519.669 475,-473"/>
</g>
<!-- burnupi&#45;&gt;ipmi -->
<g id="edge19" class="edge"><title>burnupi:ipmi&#45;&gt;ipmi:sepia_ipmi</title>
<path fill="none" stroke="blue" d="M447,-513C447,-486.404 211,-499.596 211,-473"/>
</g>
<!-- vercoi -->
<g id="node3" class="node"><title>vercoi</title>
<polygon fill="none" stroke="black" points="269,-345 269,-381 327,-381 327,-345 269,-345"/>
<text text-anchor="middle" x="298" y="-359.4" font-family="Times Roman,serif" font-size="14.00">vercoi</text>
</g>
<!-- vercoi&#45;&gt;world -->
<g id="edge35" class="edge"><title>vercoi:1g2&#45;&gt;world:switch_mgmt</title>
<path fill="none" stroke="red" d="M325.989,-344.927C326.326,-344.781 326.663,-344.638 327,-344.5 368.009,-327.678 387.272,-349.266 425,-326 425.818,-325.495 467,-271.961 467,-271"/>
</g>
<!-- vercoi&#45;&gt;world -->
<g id="edge60" class="edge"><title>vercoi:1g2&#45;&gt;world:rescue</title>
<path fill="none" stroke="brown" d="M291.025,-344.96C286.389,-328.684 283.1,-305.503 295,-290 314.89,-264.088 366,-303.666 366,-271"/>
<text text-anchor="middle" x="358" y="-313.4" font-family="Times Roman,serif" font-size="14.00">hypervisor access,</text>
<text text-anchor="middle" x="358" y="-295.4" font-family="Times Roman,serif" font-size="14.00">hypervisor ipmi</text>
</g>
<!-- vercoi&#45;&gt;world -->
<g id="edge23" class="edge"><title>vercoi:ipmi&#45;&gt;world</title>
<path fill="none" stroke="blue" d="M286.318,-344.937C283.326,-339.075 280.525,-332.461 279,-326 275.324,-310.428 275.581,-305.63 279,-290 280.39,-283.647 282.976,-277.081 285.72,-271.277"/>
</g>
<!-- gw -->
<g id="node4" class="node"><title>gw</title>
<polygon fill="none" stroke="black" points="20,-101 20,-137 74,-137 74,-101 20,-101"/>
<text text-anchor="middle" x="47" y="-115.4" font-family="Times Roman,serif" font-size="14.00">gw</text>
</g>
<!-- gw&#45;&gt;world -->
<g id="edge51" class="edge"><title>gw&#45;&gt;world:trunk</title>
<path fill="none" stroke="black" stroke-dasharray="1,5" d="M51.1256,-137.036C53.6732,-149.118 56.6962,-165.423 58,-180 59.4254,-195.936 62.1504,-200.548 58,-216 55.4689,-225.424 47,-225.242 47,-235"/>
<text text-anchor="middle" x="123" y="-203.4" font-family="Times Roman,serif" font-size="14.00">serial console</text>
<text text-anchor="middle" x="123" y="-185.4" font-family="Times Roman,serif" font-size="14.00">to manage switch</text>
</g>
<!-- force10_tor -->
<g id="node5" class="node"><title>force10_tor</title>
<polygon fill="none" stroke="black" points="74.5,-683 74.5,-719 347.5,-719 347.5,-683 74.5,-683"/>
<text text-anchor="middle" x="159" y="-697.4" font-family="Times Roman,serif" font-size="14.00">4x force10 top&#45;of&#45;rack</text>
<polyline fill="none" stroke="black" points="243.5,-683 243.5,-719 "/>
<text text-anchor="middle" x="267.5" y="-697.4" font-family="Times Roman,serif" font-size="14.00">back</text>
<polyline fill="none" stroke="black" points="291.5,-683 291.5,-719 "/>
<text text-anchor="middle" x="319.5" y="-697.4" font-family="Times Roman,serif" font-size="14.00">mgmt</text>
</g>
<!-- force10_tor&#45;&gt;plana -->
<g id="edge7" class="edge"><title>force10_tor:back&#45;&gt;plana:10g1</title>
<path fill="none" stroke="#cdcd00" d="M268,-683C268,-670.047 266.416,-664.212 265.55,-655.151"/>
<polygon fill="#cdcd00" stroke="#cdcd00" points="265.543,-654.988 261.276,-649.175 265,-643 269.267,-648.813 265.543,-654.988"/>
</g>
<!-- force10_tor&#45;&gt;burnupi -->
<g id="edge9" class="edge"><title>force10_tor:back&#45;&gt;burnupi:10g1</title>
<path fill="none" stroke="#cdcd00" d="M268,-683C268,-646.699 409.985,-675.661 441.044,-653.637"/>
<polygon fill="#cdcd00" stroke="#cdcd00" points="441.137,-653.47 440.579,-646.281 447,-643 447.559,-650.189 441.137,-653.47"/>
</g>
<!-- force10_tor&#45;&gt;vercoi -->
<g id="edge11" class="edge"><title>force10_tor:tor&#45;&gt;vercoi:10g1</title>
<path fill="none" stroke="black" stroke-width="2" d="M157.552,-671.823C154.501,-662.172 147.485,-657.697 145,-644 128.501,-553.039 93.3513,-513.336 144,-436 175.324,-388.171 211.188,-407.44 260.587,-385.568"/>
<polygon fill="black" stroke="black" points="157.592,-672.1 154.545,-682.634 158.296,-677.05 159,-682 159,-682 159,-682 158.296,-677.05 163.455,-681.366 157.592,-672.1 157.592,-672.1"/>
<polygon fill="black" stroke="black" points="260.644,-385.541 271.605,-385.205 265.139,-383.35 269.634,-381.16 269.634,-381.16 269.634,-381.16 265.139,-383.35 267.663,-377.115 260.644,-385.541 260.644,-385.541"/>
</g>
<!-- force10_tor&#45;&gt;world -->
<g id="edge27" class="edge"><title>force10_tor:mgmt&#45;&gt;world:switch_mgmt</title>
<path fill="none" stroke="red" d="M349,-701C415.337,-701 621,-644.337 621,-578 621,-578 621,-578 621,-363 621,-353.034 467,-280.966 467,-271"/>
</g>
<!-- force10_interconnect -->
<g id="node6" class="node"><title>force10_interconnect</title>
<polygon fill="none" stroke="black" points="96.5,-759 96.5,-795 277.5,-795 277.5,-759 96.5,-759"/>
<text text-anchor="middle" x="159" y="-773.4" font-family="Times Roman,serif" font-size="14.00">2x force10 aggr</text>
<polyline fill="none" stroke="black" points="221.5,-759 221.5,-795 "/>
<text text-anchor="middle" x="249.5" y="-773.4" font-family="Times Roman,serif" font-size="14.00">mgmt</text>
</g>
<!-- force10_interconnect&#45;&gt;force10_tor -->
<g id="edge2" class="edge"><title>force10_interconnect:ic&#45;&gt;force10_tor:tor</title>
<path fill="none" stroke="black" stroke-width="2" d="M159,-748.968C159,-741.545 159,-736.486 159,-729.07"/>
<polygon fill="black" stroke="black" points="159,-749 154.5,-759 159,-754 159,-759 159,-759 159,-759 159,-754 163.5,-759 159,-749 159,-749"/>
<polygon fill="black" stroke="black" points="159,-729 163.5,-719 159,-724 159,-719 159,-719 159,-719 159,-724 154.5,-719 159,-729 159,-729"/>
</g>
<!-- force10_interconnect&#45;&gt;world -->
<g id="edge4" class="edge"><title>force10_interconnect:ic&#45;&gt;world:trunk</title>
<path fill="none" stroke="black" stroke-width="2" d="M84.9873,-776.15C53.668,-770.491 47,-737.361 47,-701 47,-701 47,-701 47,-363 47,-325.785 47,-313.973 47,-281.323"/>
<polygon fill="black" stroke="black" points="85.0358,-776.154 94.6195,-781.484 90.0179,-776.577 95,-777 95,-777 95,-777 90.0179,-776.577 95.3805,-772.516 85.0358,-776.154 85.0358,-776.154"/>
<polygon fill="black" stroke="black" points="47.0001,-281 51.5,-271 47,-276 47,-271 47,-271 47,-271 47,-276 42.5,-271 47.0001,-281 47.0001,-281"/>
</g>
<!-- force10_interconnect&#45;&gt;world -->
<g id="edge29" class="edge"><title>force10_interconnect:mgmt&#45;&gt;world:switch_mgmt</title>
<path fill="none" stroke="red" d="M279,-777C322.058,-777 659,-744.058 659,-701 659,-701 659,-701 659,-363 659,-342.639 650.981,-334.744 541,-290 509.548,-277.204 467,-304.956 467,-271"/>
</g>
<!-- world&#45;&gt;gw -->
<g id="edge45" class="edge"><title>world:trunk&#45;&gt;gw</title>
<path fill="none" stroke="black" stroke-width="2" d="M47,-224.707C47,-197.389 47,-167.989 47,-147.146"/>
<polygon fill="black" stroke="black" points="47.0001,-225 42.5,-235 47,-230 47,-235 47,-235 47,-235 47,-230 51.5,-235 47.0001,-225 47.0001,-225"/>
<polygon fill="black" stroke="black" points="47.0001,-147.083 51.5,-137.083 47,-142.083 47,-137.083 47,-137.083 47,-137.083 47,-142.083 42.5,-137.083 47.0001,-147.083 47.0001,-147.083"/>
</g>
<!-- world&#45;&gt;gw -->
<g id="edge47" class="edge"><title>world:pub&#45;&gt;gw</title>
<path fill="none" stroke="#ffa500" d="M123,-235C123,-197.59 181.723,-245.287 205,-216 214.955,-203.474 215.483,-192.087 205,-180 196.764,-170.503 160.969,-175.841 149,-172 122.208,-163.401 93.9861,-148.197 74.0374,-136.271"/>
</g>
<!-- some_router -->
<g id="node18" class="node"><title>some_router</title>
<polygon fill="none" stroke="black" points="161,-101 161,-137 265,-137 265,-101 161,-101"/>
<text text-anchor="middle" x="213" y="-115.4" font-family="Times Roman,serif" font-size="14.00">some_router</text>
</g>
<!-- world&#45;&gt;some_router -->
<g id="edge49" class="edge"><title>world:pub&#45;&gt;some_router</title>
<path fill="none" stroke="#ffa500" d="M123,-235C123,-186.701 198.976,-253.018 230,-216 248.559,-193.855 235.206,-158.675 223.986,-137.321"/>
</g>
<!-- sepia_ipmi -->
<g id="node25" class="node"><title>sepia_ipmi</title>
<polygon fill="none" stroke="black" points="283,-101 283,-137 371,-137 371,-101 283,-101"/>
<text text-anchor="middle" x="327" y="-115.4" font-family="Times Roman,serif" font-size="14.00">sepia_ipmi</text>
</g>
<!-- world&#45;&gt;sepia_ipmi -->
<g id="edge24" class="edge"><title>world&#45;&gt;sepia_ipmi</title>
<path fill="none" stroke="blue" d="M300.181,-234.928C306.097,-209.353 316.852,-162.865 322.786,-137.213"/>
</g>
<!-- slow&#45;&gt;vercoi -->
<g id="edge42" class="edge"><title>slow:tor&#45;&gt;vercoi:10g2</title>
<path fill="none" stroke="black" stroke-width="2" d="M388.873,-428.348C377.172,-418.392 353.149,-401.175 332.741,-386.912"/>
<polygon fill="black" stroke="black" points="389.185,-428.682 392.707,-439.067 392.592,-432.341 396,-436 396,-436 396,-436 392.592,-432.341 399.293,-432.933 389.185,-428.682 389.185,-428.682"/>
<polygon fill="black" stroke="black" points="332.47,-386.723 326.833,-377.317 328.366,-383.866 324.262,-381.01 324.262,-381.01 324.262,-381.01 328.366,-383.866 321.691,-384.703 332.47,-386.723 332.47,-386.723"/>
<text text-anchor="middle" x="384" y="-405.4" font-family="Times Roman,serif" font-size="14.00">1g</text>
</g>
<!-- slow&#45;&gt;world -->
<g id="edge31" class="edge"><title>slow:mgmt&#45;&gt;world:switch_mgmt</title>
<path fill="none" stroke="red" d="M528,-437C528,-427.175 467,-280.825 467,-271"/>
</g>
<!-- slow&#45;&gt;world -->
<g id="edge13" class="edge"><title>slow:tor&#45;&gt;world:trunk</title>
<path fill="none" stroke="black" stroke-width="2" d="M336.376,-445.814C336.47,-442.453 336.358,-438.794 334,-436 312.036,-409.977 84.7604,-322.246 51.1451,-280.181"/>
<polygon fill="black" stroke="black" points="336.503,-446.068 336.981,-457.024 338.752,-450.534 341,-455 341,-455 341,-455 338.752,-450.534 345.019,-452.976 336.503,-446.068 336.503,-446.068"/>
<polygon fill="black" stroke="black" points="51.1149,-280.114 51.1014,-269.148 49.0575,-275.557 47,-271 47,-271 47,-271 49.0575,-275.557 42.8986,-272.852 51.1149,-280.114 51.1149,-280.114"/>
</g>
<!-- ipmi&#45;&gt;world -->
<g id="edge33" class="edge"><title>ipmi:mgmt&#45;&gt;world:switch_mgmt</title>
<path fill="none" stroke="red" d="M326,-455C335.162,-455 328.787,-443.535 334,-436 374.424,-377.571 412.509,-386.353 450,-326 463.501,-304.266 467,-296.585 467,-271"/>
</g>
<!-- ipmi&#45;&gt;world -->
<g id="edge21" class="edge"><title>ipmi:sepia_ipmi&#45;&gt;world:sepia_ipmi</title>
<path fill="none" stroke="blue" d="M152,-455C143.766,-455 150.021,-444.177 153,-436.5 183.447,-358.034 216.507,-352.389 273,-290 281.016,-281.148 292,-282.942 292,-271"/>
</g>
<!-- office -->
<g id="node19" class="node"><title>office</title>
<polygon fill="none" stroke="black" points="258.826,-46.0224 213,-61.7248 167.174,-46.0224 167.217,-20.6152 258.783,-20.6152 258.826,-46.0224"/>
<text text-anchor="middle" x="213" y="-35.4" font-family="Times Roman,serif" font-size="14.00">office</text>
</g>
<!-- some_router&#45;&gt;office -->
<g id="edge53" class="edge"><title>some_router&#45;&gt;office</title>
<path fill="none" stroke="black" d="M213,-100.847C213,-89.2295 213,-74.0657 213,-61.6607"/>
</g>
</g>
</svg>
