<?xml version="1.0" encoding="UTF-8" standalone="no"?>
<!DOCTYPE svg PUBLIC "-//W3C//DTD SVG 1.1//EN"
 "http://www.w3.org/Graphics/SVG/1.1/DTD/svg11.dtd">
<!-- Generated by graphviz version 2.26.3 (20100126.1600)
 -->
<!-- Title: new&#45;sepia&#45;network Pages: 1 -->
<svg width="856pt" height="898pt"
 viewBox="0.00 0.00 855.69 898.00" xmlns="http://www.w3.org/2000/svg" xmlns:xlink="http://www.w3.org/1999/xlink">
<g id="graph1" class="graph" transform="scale(1 1) rotate(0) translate(4 894)">
<title>new&#45;sepia&#45;network</title>
<polygon fill="white" stroke="white" points="-4,5 -4,-894 852.69,-894 852.69,5 -4,5"/>
<g id="graph3" class="cluster"><title>cluster_dh_managed</title>
<polygon fill="none" stroke="#858585" stroke-dasharray="1,5" points="171.69,-8 171.69,-172 291.69,-172 291.69,-8 171.69,-8"/>
<text text-anchor="middle" x="231.69" y="-155.4" font-family="Times Roman,serif" font-size="14.00">DH managed</text>
</g>
<!-- plana -->
<g id="node1" class="node"><title>plana</title>
<polygon fill="none" stroke="black" points="645.19,-607 645.19,-737 782.19,-737 782.19,-607 645.19,-607"/>
<text text-anchor="middle" x="687.69" y="-668.4" font-family="Times Roman,serif" font-size="14.00">96x plana</text>
<polyline fill="none" stroke="black" points="730.19,-607 730.19,-737 "/>
<text text-anchor="middle" x="756.19" y="-720.4" font-family="Times Roman,serif" font-size="14.00">10g1</text>
<polyline fill="none" stroke="black" points="730.19,-711 782.19,-711 "/>
<text text-anchor="middle" x="756.19" y="-694.4" font-family="Times Roman,serif" font-size="14.00">10g2</text>
<polyline fill="none" stroke="black" points="730.19,-685 782.19,-685 "/>
<text text-anchor="middle" x="756.19" y="-668.4" font-family="Times Roman,serif" font-size="14.00">1g1</text>
<polyline fill="none" stroke="black" points="730.19,-659 782.19,-659 "/>
<text text-anchor="middle" x="756.19" y="-642.4" font-family="Times Roman,serif" font-size="14.00">1g2</text>
<polyline fill="none" stroke="black" points="730.19,-633 782.19,-633 "/>
<text text-anchor="middle" x="756.19" y="-616.4" font-family="Times Roman,serif" font-size="14.00">ipmi</text>
</g>
<!-- world -->
<g id="node9" class="node"><title>world</title>
<polygon fill="none" stroke="black" points="87.1904,-235 87.1904,-271 680.19,-271 680.19,-235 87.1904,-235"/>
<text text-anchor="middle" x="135.19" y="-249.4" font-family="Times Roman,serif" font-size="14.00">4948 world</text>
<polyline fill="none" stroke="black" points="183.19,-235 183.19,-271 "/>
<text text-anchor="middle" x="211.19" y="-249.4" font-family="Times Roman,serif" font-size="14.00">public</text>
<polyline fill="none" stroke="black" points="239.19,-235 239.19,-271 "/>
<text text-anchor="middle" x="264.19" y="-249.4" font-family="Times Roman,serif" font-size="14.00">front</text>
<polyline fill="none" stroke="black" points="289.19,-235 289.19,-271 "/>
<text text-anchor="middle" x="313.19" y="-249.4" font-family="Times Roman,serif" font-size="14.00">back</text>
<polyline fill="none" stroke="black" points="337.19,-235 337.19,-271 "/>
<text text-anchor="middle" x="379.69" y="-249.4" font-family="Times Roman,serif" font-size="14.00">sepia ipmi</text>
<polyline fill="none" stroke="black" points="422.19,-235 422.19,-271 "/>
<text text-anchor="middle" x="453.19" y="-249.4" font-family="Times Roman,serif" font-size="14.00">rescue</text>
<polyline fill="none" stroke="black" points="484.19,-235 484.19,-271 "/>
<text text-anchor="middle" x="554.19" y="-249.4" font-family="Times Roman,serif" font-size="14.00">switch mgmt vlan</text>
<polyline fill="none" stroke="black" points="624.19,-235 624.19,-271 "/>
<text text-anchor="middle" x="652.19" y="-249.4" font-family="Times Roman,serif" font-size="14.00">mgmt</text>
</g>
<!-- plana&#45;&gt;world -->
<g id="edge56" class="edge"><title>plana:1g2&#45;&gt;world:rescue</title>
<path fill="none" stroke="brown" d="M783.69,-646C801.252,-646 788.064,-623.219 782.69,-606.5 730.651,-444.605 710.893,-381.712 567.69,-290 546.063,-276.149 453.69,-296.683 453.69,-271"/>
</g>
<!-- slow -->
<g id="node14" class="node"><title>slow</title>
<polygon fill="none" stroke="black" points="377.19,-531 377.19,-567 590.19,-567 590.19,-531 377.19,-531"/>
<text text-anchor="middle" x="430.69" y="-545.4" font-family="Times Roman,serif" font-size="14.00">4x 2960g tor</text>
<polyline fill="none" stroke="black" points="484.19,-531 484.19,-567 "/>
<text text-anchor="middle" x="509.19" y="-545.4" font-family="Times Roman,serif" font-size="14.00">front</text>
<polyline fill="none" stroke="black" points="534.19,-531 534.19,-567 "/>
<text text-anchor="middle" x="562.19" y="-545.4" font-family="Times Roman,serif" font-size="14.00">mgmt</text>
</g>
<!-- plana&#45;&gt;slow -->
<g id="edge38" class="edge"><title>plana:1g1&#45;&gt;slow:front</title>
<path fill="none" stroke="green" d="M783.69,-672C798.248,-672 792.374,-617.369 782.69,-606.5 762.302,-583.616 509.69,-597.649 509.69,-567"/>
</g>
<!-- ipmi -->
<g id="node16" class="node"><title>ipmi</title>
<polygon fill="none" stroke="black" points="187.69,-531 187.69,-567 359.69,-567 359.69,-531 187.69,-531"/>
<text text-anchor="middle" x="245.69" y="-545.4" font-family="Times Roman,serif" font-size="14.00">4x 2960g ipmi</text>
<polyline fill="none" stroke="black" points="303.69,-531 303.69,-567 "/>
<text text-anchor="middle" x="331.69" y="-545.4" font-family="Times Roman,serif" font-size="14.00">mgmt</text>
</g>
<!-- plana&#45;&gt;ipmi -->
<g id="edge17" class="edge"><title>plana:ipmi&#45;&gt;ipmi:sepia_ipmi</title>
<path fill="none" stroke="blue" d="M756.69,-607C756.69,-578.524 245.69,-595.476 245.69,-567"/>
</g>
<!-- burnupi -->
<g id="node2" class="node"><title>burnupi</title>
<polygon fill="none" stroke="black" points="252.19,-607 252.19,-737 405.19,-737 405.19,-607 252.19,-607"/>
<text text-anchor="middle" x="302.69" y="-668.4" font-family="Times Roman,serif" font-size="14.00">64x burnupi</text>
<polyline fill="none" stroke="black" points="353.19,-607 353.19,-737 "/>
<text text-anchor="middle" x="379.19" y="-720.4" font-family="Times Roman,serif" font-size="14.00">10g1</text>
<polyline fill="none" stroke="black" points="353.19,-711 405.19,-711 "/>
<text text-anchor="middle" x="379.19" y="-694.4" font-family="Times Roman,serif" font-size="14.00">10g2</text>
<polyline fill="none" stroke="black" points="353.19,-685 405.19,-685 "/>
<text text-anchor="middle" x="379.19" y="-668.4" font-family="Times Roman,serif" font-size="14.00">1g1</text>
<polyline fill="none" stroke="black" points="353.19,-659 405.19,-659 "/>
<text text-anchor="middle" x="379.19" y="-642.4" font-family="Times Roman,serif" font-size="14.00">1g2</text>
<polyline fill="none" stroke="black" points="353.19,-633 405.19,-633 "/>
<text text-anchor="middle" x="379.19" y="-616.4" font-family="Times Roman,serif" font-size="14.00">ipmi</text>
</g>
<!-- burnupi&#45;&gt;world -->
<g id="edge58" class="edge"><title>burnupi:1g2&#45;&gt;world:rescue</title>
<path fill="none" stroke="brown" d="M406.69,-646C424.252,-646 417.509,-619.489 405.69,-606.5 382.493,-581.006 285.516,-594.628 251.69,-588 218.678,-581.532 199.094,-594.746 178.69,-568 168.447,-554.572 177.386,-546.838 178.69,-530 185.154,-446.585 156.867,-410.46 207.69,-344 243.464,-297.22 272.181,-306.574 328.69,-290 355.651,-282.092 453.69,-299.097 453.69,-271"/>
</g>
<!-- burnupi&#45;&gt;slow -->
<g id="edge40" class="edge"><title>burnupi:1g1&#45;&gt;slow:front</title>
<path fill="none" stroke="green" d="M406.69,-672C472.062,-672 509.69,-632.371 509.69,-567"/>
</g>
<!-- burnupi&#45;&gt;ipmi -->
<g id="edge19" class="edge"><title>burnupi:ipmi&#45;&gt;ipmi:sepia_ipmi</title>
<path fill="none" stroke="blue" d="M379.69,-607C379.69,-544.848 245.69,-629.152 245.69,-567"/>
</g>
<!-- vercoi -->
<g id="node3" class="node"><title>vercoi</title>
<polygon fill="none" stroke="black" points="324.69,-345 324.69,-475 456.69,-475 456.69,-345 324.69,-345"/>
<text text-anchor="middle" x="364.69" y="-406.4" font-family="Times Roman,serif" font-size="14.00">8x vercoi</text>
<polyline fill="none" stroke="black" points="404.69,-345 404.69,-475 "/>
<text text-anchor="middle" x="430.69" y="-458.4" font-family="Times Roman,serif" font-size="14.00">10g1</text>
<polyline fill="none" stroke="black" points="404.69,-449 456.69,-449 "/>
<text text-anchor="middle" x="430.69" y="-432.4" font-family="Times Roman,serif" font-size="14.00">10g2</text>
<polyline fill="none" stroke="black" points="404.69,-423 456.69,-423 "/>
<text text-anchor="middle" x="430.69" y="-406.4" font-family="Times Roman,serif" font-size="14.00">1g1</text>
<polyline fill="none" stroke="black" points="404.69,-397 456.69,-397 "/>
<text text-anchor="middle" x="430.69" y="-380.4" font-family="Times Roman,serif" font-size="14.00">1g2</text>
<polyline fill="none" stroke="black" points="404.69,-371 456.69,-371 "/>
<text text-anchor="middle" x="430.69" y="-354.4" font-family="Times Roman,serif" font-size="14.00">ipmi</text>
</g>
<!-- vercoi&#45;&gt;world -->
<g id="edge35" class="edge"><title>vercoi:1g2&#45;&gt;world:switch_mgmt</title>
<path fill="none" stroke="red" d="M457.69,-384C496.078,-384 497.33,-355.668 521.69,-326 530.735,-314.984 554.69,-285.253 554.69,-271"/>
</g>
<!-- vercoi&#45;&gt;world -->
<g id="edge60" class="edge"><title>vercoi:1g2&#45;&gt;world:rescue</title>
<path fill="none" stroke="brown" d="M457.69,-384C475.252,-384 467.449,-358.38 456.69,-344.5 438.289,-320.761 409.79,-349.97 391.69,-326 382.049,-313.231 382.177,-302.865 391.69,-290 408.826,-266.827 453.69,-299.82 453.69,-271"/>
<text text-anchor="middle" x="454.69" y="-313.4" font-family="Times Roman,serif" font-size="14.00">hypervisor access,</text>
<text text-anchor="middle" x="454.69" y="-295.4" font-family="Times Roman,serif" font-size="14.00">hypervisor ipmi</text>
</g>
<!-- vercoi&#45;&gt;world -->
<g id="edge23" class="edge"><title>vercoi:ipmi&#45;&gt;world</title>
<path fill="none" stroke="blue" d="M430.69,-345C430.69,-319.138 390.698,-347.062 375.69,-326 364.371,-310.114 369.439,-287.141 375.35,-271.228"/>
</g>
<!-- gw -->
<g id="node4" class="node"><title>gw</title>
<polygon fill="none" stroke="black" points="107.69,-101 107.69,-137 161.69,-137 161.69,-101 107.69,-101"/>
<text text-anchor="middle" x="134.69" y="-115.4" font-family="Times Roman,serif" font-size="14.00">gw</text>
</g>
<!-- gw&#45;&gt;world -->
<g id="edge51" class="edge"><title>gw&#45;&gt;world:trunk</title>
<path fill="none" stroke="black" stroke-dasharray="1,5" d="M107.539,-123.271C76.9913,-129.686 28.7645,-145.028 6.6904,-180 -18.8265,-220.427 37.8842,-253 85.6904,-253"/>
<text text-anchor="middle" x="68.6904" y="-203.4" font-family="Times Roman,serif" font-size="14.00">serial console</text>
<text text-anchor="middle" x="68.6904" y="-185.4" font-family="Times Roman,serif" font-size="14.00">to manage switch</text>
</g>
<!-- force10_tor -->
<g id="node5" class="node"><title>force10_tor</title>
<polygon fill="none" stroke="black" points="533.19,-777 533.19,-813 806.19,-813 806.19,-777 533.19,-777"/>
<text text-anchor="middle" x="617.69" y="-791.4" font-family="Times Roman,serif" font-size="14.00">4x force10 top&#45;of&#45;rack</text>
<polyline fill="none" stroke="black" points="702.19,-777 702.19,-813 "/>
<text text-anchor="middle" x="726.19" y="-791.4" font-family="Times Roman,serif" font-size="14.00">back</text>
<polyline fill="none" stroke="black" points="750.19,-777 750.19,-813 "/>
<text text-anchor="middle" x="778.19" y="-791.4" font-family="Times Roman,serif" font-size="14.00">mgmt</text>
</g>
<!-- force10_tor&#45;&gt;plana -->
<g id="edge7" class="edge"><title>force10_tor:back&#45;&gt;plana:10g1</title>
<path fill="none" stroke="#cdcd00" d="M726.69,-777C726.69,-759.812 744.637,-758.577 752.768,-748.618"/>
<polygon fill="#cdcd00" stroke="#cdcd00" points="752.852,-748.37 750.981,-741.405 756.69,-737 758.561,-743.964 752.852,-748.37"/>
</g>
<!-- force10_tor&#45;&gt;burnupi -->
<g id="edge9" class="edge"><title>force10_tor:back&#45;&gt;burnupi:10g1</title>
<path fill="none" stroke="#cdcd00" d="M725.69,-776C725.69,-742.722 483.327,-726.55 418.003,-724.28"/>
<polygon fill="#cdcd00" stroke="#cdcd00" points="417.687,-724.273 411.598,-728.135 405.69,-724 411.78,-720.137 417.687,-724.273"/>
</g>
<!-- force10_tor&#45;&gt;vercoi -->
<g id="edge11" class="edge"><title>force10_tor:tor&#45;&gt;vercoi:10g1</title>
<path fill="none" stroke="black" stroke-width="2" d="M616.814,-765.906C619.323,-663.467 658.534,-617.733 598.69,-530 561.262,-475.129 529.993,-463.158 467.067,-462.084"/>
<polygon fill="black" stroke="black" points="616.813,-766.001 612.191,-775.945 616.752,-771 616.69,-776 616.69,-776 616.69,-776 616.752,-771 621.19,-776.055 616.813,-766.001 616.813,-766.001"/>
<polygon fill="black" stroke="black" points="466.69,-462.081 456.727,-457.5 461.69,-462.04 456.69,-462 456.69,-462 456.69,-462 461.69,-462.04 456.654,-466.5 466.69,-462.081 466.69,-462.081"/>
</g>
<!-- force10_tor&#45;&gt;world -->
<g id="edge27" class="edge"><title>force10_tor:mgmt&#45;&gt;world:switch_mgmt</title>
<path fill="none" stroke="red" d="M778.69,-777C778.69,-758.865 785.515,-755.381 790.69,-738 799.401,-708.745 809.69,-702.525 809.69,-672 809.69,-672 809.69,-672 809.69,-410 809.69,-300.568 691.944,-340.17 594.69,-290 577.199,-280.977 554.69,-290.681 554.69,-271"/>
</g>
<!-- force10_interconnect -->
<g id="node6" class="node"><title>force10_interconnect</title>
<polygon fill="none" stroke="black" points="555.19,-853 555.19,-889 736.19,-889 736.19,-853 555.19,-853"/>
<text text-anchor="middle" x="617.69" y="-867.4" font-family="Times Roman,serif" font-size="14.00">2x force10 aggr</text>
<polyline fill="none" stroke="black" points="680.19,-853 680.19,-889 "/>
<text text-anchor="middle" x="708.19" y="-867.4" font-family="Times Roman,serif" font-size="14.00">mgmt</text>
</g>
<!-- force10_interconnect&#45;&gt;force10_tor -->
<g id="edge2" class="edge"><title>force10_interconnect:ic&#45;&gt;force10_tor:tor</title>
<path fill="none" stroke="black" stroke-width="2" d="M617.69,-842.968C617.69,-835.545 617.69,-830.486 617.69,-823.07"/>
<polygon fill="black" stroke="black" points="617.69,-843 613.19,-853 617.69,-848 617.69,-853 617.69,-853 617.69,-853 617.69,-848 622.19,-853 617.69,-843 617.69,-843"/>
<polygon fill="black" stroke="black" points="617.69,-823 622.19,-813 617.69,-818 617.69,-813 617.69,-813 617.69,-813 617.69,-818 613.19,-813 617.69,-823 617.69,-823"/>
</g>
<!-- force10_interconnect&#45;&gt;world -->
<g id="edge4" class="edge"><title>force10_interconnect:ic&#45;&gt;world:trunk</title>
<path fill="none" stroke="black" stroke-width="2" d="M543.294,-870.773C465.597,-868.065 121.69,-841.167 121.69,-795 121.69,-795 121.69,-795 121.69,-410 121.69,-351.467 133.259,-334.887 134.57,-281.107"/>
<polygon fill="black" stroke="black" points="543.693,-870.782 553.592,-875.499 548.692,-870.891 553.69,-871 553.69,-871 553.69,-871 548.692,-870.891 553.789,-866.501 543.693,-870.782 543.693,-870.782"/>
<polygon fill="black" stroke="black" points="134.571,-280.999 139.19,-271.054 134.631,-276 134.69,-271 134.69,-271 134.69,-271 134.631,-276 130.191,-270.946 134.571,-280.999 134.571,-280.999"/>
</g>
<!-- force10_interconnect&#45;&gt;world -->
<g id="edge29" class="edge"><title>force10_interconnect:mgmt&#45;&gt;world:switch_mgmt</title>
<path fill="none" stroke="red" d="M737.69,-871C797.113,-871 847.69,-854.423 847.69,-795 847.69,-795 847.69,-795 847.69,-410 847.69,-316.425 765.302,-313.365 674.69,-290 648.547,-283.259 554.69,-297.999 554.69,-271"/>
</g>
<!-- world&#45;&gt;gw -->
<g id="edge45" class="edge"><title>world:trunk&#45;&gt;gw</title>
<path fill="none" stroke="black" stroke-width="2" d="M134.69,-224.707C134.69,-197.389 134.69,-167.989 134.69,-147.146"/>
<polygon fill="black" stroke="black" points="134.69,-225 130.19,-235 134.69,-230 134.69,-235 134.69,-235 134.69,-235 134.69,-230 139.19,-235 134.69,-225 134.69,-225"/>
<polygon fill="black" stroke="black" points="134.69,-147.083 139.19,-137.083 134.69,-142.083 134.69,-137.083 134.69,-137.083 134.69,-137.083 134.69,-142.083 130.19,-137.083 134.69,-147.083 134.69,-147.083"/>
</g>
<!-- world&#45;&gt;gw -->
<g id="edge47" class="edge"><title>world:pub&#45;&gt;gw</title>
<path fill="none" stroke="#ffa500" d="M210.69,-235C210.69,-201.1 186.209,-200.395 167.69,-172 160.23,-160.56 152.119,-147.543 145.805,-137.271"/>
</g>
<!-- some_router -->
<g id="node18" class="node"><title>some_router</title>
<polygon fill="none" stroke="black" points="179.69,-101 179.69,-137 283.69,-137 283.69,-101 179.69,-101"/>
<text text-anchor="middle" x="231.69" y="-115.4" font-family="Times Roman,serif" font-size="14.00">some_router</text>
</g>
<!-- world&#45;&gt;some_router -->
<g id="edge49" class="edge"><title>world:pub&#45;&gt;some_router</title>
<path fill="none" stroke="#ffa500" d="M210.69,-235C210.69,-200.003 220.06,-160.002 226.282,-137.298"/>
</g>
<!-- sepia_ipmi -->
<g id="node25" class="node"><title>sepia_ipmi</title>
<polygon fill="none" stroke="black" points="339.69,-101 339.69,-137 427.69,-137 427.69,-101 339.69,-101"/>
<text text-anchor="middle" x="383.69" y="-115.4" font-family="Times Roman,serif" font-size="14.00">sepia_ipmi</text>
</g>
<!-- world&#45;&gt;sepia_ipmi -->
<g id="edge24" class="edge"><title>world&#45;&gt;sepia_ipmi</title>
<path fill="none" stroke="blue" d="M383.69,-234.928C383.69,-209.353 383.69,-162.865 383.69,-137.213"/>
</g>
<!-- slow&#45;&gt;vercoi -->
<g id="edge42" class="edge"><title>slow:tor&#45;&gt;vercoi:10g2</title>
<path fill="none" stroke="black" stroke-width="2" d="M430.828,-519.99C435.261,-502.148 451.395,-498.119 456.69,-475.5 459.442,-463.748 466.708,-449.485 465.276,-441.719"/>
<polygon fill="black" stroke="black" points="430.819,-520.064 425.219,-529.492 430.255,-525.032 429.69,-530 429.69,-530 429.69,-530 430.255,-525.032 434.162,-530.508 430.819,-520.064 430.819,-520.064"/>
<polygon fill="black" stroke="black" points="465.013,-441.544 459.185,-432.255 460.852,-438.772 456.69,-436 456.69,-436 456.69,-436 460.852,-438.772 454.196,-439.745 465.013,-441.544 465.013,-441.544"/>
<text text-anchor="middle" x="456.69" y="-499.4" font-family="Times Roman,serif" font-size="14.00">1g</text>
</g>
<!-- slow&#45;&gt;world -->
<g id="edge31" class="edge"><title>slow:mgmt&#45;&gt;world:switch_mgmt</title>
<path fill="none" stroke="red" d="M562.69,-531C562.69,-521.012 571.914,-521.594 574.69,-512 602.115,-417.221 613.614,-380.665 574.69,-290 569.854,-278.734 554.69,-283.261 554.69,-271"/>
</g>
<!-- slow&#45;&gt;world -->
<g id="edge13" class="edge"><title>slow:tor&#45;&gt;world:trunk</title>
<path fill="none" stroke="black" stroke-width="2" d="M370.641,-540.126C370.683,-536.804 370.646,-533.089 368.69,-530 350.699,-501.589 338.605,-500.613 315.69,-476 276.545,-433.953 149.664,-342.516 135.904,-281.305"/>
<polygon fill="black" stroke="black" points="370.745,-540.309 371.779,-551.226 373.217,-544.654 375.69,-549 375.69,-549 375.69,-549 373.217,-544.654 379.601,-546.774 370.745,-540.309 370.745,-540.309"/>
<polygon fill="black" stroke="black" points="135.86,-280.931 139.16,-270.474 135.275,-275.966 134.69,-271 134.69,-271 134.69,-271 135.275,-275.966 130.221,-271.526 135.86,-280.931 135.86,-280.931"/>
</g>
<!-- ipmi&#45;&gt;world -->
<g id="edge33" class="edge"><title>ipmi:mgmt&#45;&gt;world:switch_mgmt</title>
<path fill="none" stroke="red" d="M360.69,-549C369.853,-549 361.533,-535.721 368.69,-530 404.307,-501.531 434.16,-540.576 469.69,-512 558.196,-440.819 554.69,-384.578 554.69,-271"/>
</g>
<!-- ipmi&#45;&gt;world -->
<g id="edge21" class="edge"><title>ipmi:sepia_ipmi&#45;&gt;world:sepia_ipmi</title>
<path fill="none" stroke="blue" d="M186.69,-549C178.456,-549 185.04,-538.296 187.69,-530.5 220.053,-435.318 254.001,-423.381 315.69,-344 319,-339.741 379.69,-276.393 379.69,-271"/>
</g>
<!-- office -->
<g id="node19" class="node"><title>office</title>
<polygon fill="none" stroke="black" points="277.516,-46.0224 231.69,-61.7248 185.865,-46.0224 185.908,-20.6152 277.473,-20.6152 277.516,-46.0224"/>
<text text-anchor="middle" x="231.69" y="-35.4" font-family="Times Roman,serif" font-size="14.00">office</text>
</g>
<!-- some_router&#45;&gt;office -->
<g id="edge53" class="edge"><title>some_router&#45;&gt;office</title>
<path fill="none" stroke="black" d="M231.69,-100.847C231.69,-89.2295 231.69,-74.0657 231.69,-61.6607"/>
</g>
</g>
</svg>
