<?xml version="1.0" encoding="UTF-8" standalone="no"?>
<!DOCTYPE svg PUBLIC "-//W3C//DTD SVG 1.1//EN"
 "http://www.w3.org/Graphics/SVG/1.1/DTD/svg11.dtd">
<!-- Generated by graphviz version 2.26.3 (20100126.1600)
 -->
<!-- Title: new&#45;sepia&#45;network Pages: 1 -->
<svg width="615pt" height="906pt"
 viewBox="0.00 0.00 615.22 906.00" xmlns="http://www.w3.org/2000/svg" xmlns:xlink="http://www.w3.org/1999/xlink">
<g id="graph1" class="graph" transform="scale(1 1) rotate(0) translate(4 902)">
<title>new&#45;sepia&#45;network</title>
<polygon fill="white" stroke="white" points="-4,5 -4,-902 612.22,-902 612.22,5 -4,5"/>
<g id="graph3" class="cluster"><title>cluster_dh_managed</title>
<polygon fill="none" stroke="#858585" stroke-dasharray="1,5" points="99.2197,-8 99.2197,-172 219.22,-172 219.22,-8 99.2197,-8"/>
<text text-anchor="middle" x="159.22" y="-155.4" font-family="Times Roman,serif" font-size="14.00">DH managed</text>
</g>
<!-- plana -->
<g id="node1" class="node"><title>plana</title>
<polygon fill="none" stroke="black" points="121.72,-615 121.72,-745 258.72,-745 258.72,-615 121.72,-615"/>
<text text-anchor="middle" x="164.22" y="-676.4" font-family="Times Roman,serif" font-size="14.00">96x plana</text>
<polyline fill="none" stroke="black" points="206.72,-615 206.72,-745 "/>
<text text-anchor="middle" x="232.72" y="-728.4" font-family="Times Roman,serif" font-size="14.00">10g1</text>
<polyline fill="none" stroke="black" points="206.72,-719 258.72,-719 "/>
<text text-anchor="middle" x="232.72" y="-702.4" font-family="Times Roman,serif" font-size="14.00">10g2</text>
<polyline fill="none" stroke="black" points="206.72,-693 258.72,-693 "/>
<text text-anchor="middle" x="232.72" y="-676.4" font-family="Times Roman,serif" font-size="14.00">1g1</text>
<polyline fill="none" stroke="black" points="206.72,-667 258.72,-667 "/>
<text text-anchor="middle" x="232.72" y="-650.4" font-family="Times Roman,serif" font-size="14.00">1g2</text>
<polyline fill="none" stroke="black" points="206.72,-641 258.72,-641 "/>
<text text-anchor="middle" x="232.72" y="-624.4" font-family="Times Roman,serif" font-size="14.00">ipmi</text>
</g>
<!-- slow -->
<g id="node14" class="node"><title>slow</title>
<polygon fill="none" stroke="black" points="160.72,-539 160.72,-575 373.72,-575 373.72,-539 160.72,-539"/>
<text text-anchor="middle" x="214.22" y="-553.4" font-family="Times Roman,serif" font-size="14.00">4x 2960g tor</text>
<polyline fill="none" stroke="black" points="267.72,-539 267.72,-575 "/>
<text text-anchor="middle" x="292.72" y="-553.4" font-family="Times Roman,serif" font-size="14.00">front</text>
<polyline fill="none" stroke="black" points="317.72,-539 317.72,-575 "/>
<text text-anchor="middle" x="345.72" y="-553.4" font-family="Times Roman,serif" font-size="14.00">mgmt</text>
</g>
<!-- plana&#45;&gt;slow -->
<g id="edge35" class="edge"><title>plana:1g1&#45;&gt;slow:front</title>
<path fill="none" stroke="green" d="M260.22,-680C267.594,-680 264.713,-620.935 267.22,-614 274.301,-594.408 293.22,-595.832 293.22,-575"/>
</g>
<!-- ipmi -->
<g id="node16" class="node"><title>ipmi</title>
<polygon fill="none" stroke="black" points="147.22,-277 147.22,-313 319.22,-313 319.22,-277 147.22,-277"/>
<text text-anchor="middle" x="205.22" y="-291.4" font-family="Times Roman,serif" font-size="14.00">4x 2960g ipmi</text>
<polyline fill="none" stroke="black" points="263.22,-277 263.22,-313 "/>
<text text-anchor="middle" x="291.22" y="-291.4" font-family="Times Roman,serif" font-size="14.00">mgmt</text>
</g>
<!-- plana&#45;&gt;ipmi -->
<g id="edge17" class="edge"><title>plana:ipmi&#45;&gt;ipmi:sepia_ipmi</title>
<path fill="none" stroke="blue" d="M232.22,-614C232.22,-574.637 173.567,-609.072 152.22,-576 135.285,-549.764 115.992,-295 147.22,-295"/>
</g>
<!-- burnupi -->
<g id="node2" class="node"><title>burnupi</title>
<polygon fill="none" stroke="black" points="275.72,-615 275.72,-745 428.72,-745 428.72,-615 275.72,-615"/>
<text text-anchor="middle" x="326.22" y="-676.4" font-family="Times Roman,serif" font-size="14.00">64x burnupi</text>
<polyline fill="none" stroke="black" points="376.72,-615 376.72,-745 "/>
<text text-anchor="middle" x="402.72" y="-728.4" font-family="Times Roman,serif" font-size="14.00">10g1</text>
<polyline fill="none" stroke="black" points="376.72,-719 428.72,-719 "/>
<text text-anchor="middle" x="402.72" y="-702.4" font-family="Times Roman,serif" font-size="14.00">10g2</text>
<polyline fill="none" stroke="black" points="376.72,-693 428.72,-693 "/>
<text text-anchor="middle" x="402.72" y="-676.4" font-family="Times Roman,serif" font-size="14.00">1g1</text>
<polyline fill="none" stroke="black" points="376.72,-667 428.72,-667 "/>
<text text-anchor="middle" x="402.72" y="-650.4" font-family="Times Roman,serif" font-size="14.00">1g2</text>
<polyline fill="none" stroke="black" points="376.72,-641 428.72,-641 "/>
<text text-anchor="middle" x="402.72" y="-624.4" font-family="Times Roman,serif" font-size="14.00">ipmi</text>
</g>
<!-- burnupi&#45;&gt;slow -->
<g id="edge37" class="edge"><title>burnupi:1g1&#45;&gt;slow:front</title>
<path fill="none" stroke="green" d="M430.22,-680C459.334,-680 446.879,-637.648 429.22,-614.5 410.131,-589.479 293.22,-606.471 293.22,-575"/>
</g>
<!-- burnupi&#45;&gt;ipmi -->
<g id="edge19" class="edge"><title>burnupi:ipmi&#45;&gt;ipmi:sepia_ipmi</title>
<path fill="none" stroke="blue" d="M403.22,-615C403.22,-561.042 364.758,-391.292 326.22,-352 324.983,-350.739 205.22,-314.766 205.22,-313"/>
</g>
<!-- vercoi -->
<g id="node3" class="node"><title>vercoi</title>
<polygon fill="none" stroke="black" points="185.22,-353 185.22,-483 317.22,-483 317.22,-353 185.22,-353"/>
<text text-anchor="middle" x="225.22" y="-414.4" font-family="Times Roman,serif" font-size="14.00">8x vercoi</text>
<polyline fill="none" stroke="black" points="265.22,-353 265.22,-483 "/>
<text text-anchor="middle" x="291.22" y="-466.4" font-family="Times Roman,serif" font-size="14.00">10g1</text>
<polyline fill="none" stroke="black" points="265.22,-457 317.22,-457 "/>
<text text-anchor="middle" x="291.22" y="-440.4" font-family="Times Roman,serif" font-size="14.00">10g2</text>
<polyline fill="none" stroke="black" points="265.22,-431 317.22,-431 "/>
<text text-anchor="middle" x="291.22" y="-414.4" font-family="Times Roman,serif" font-size="14.00">1g1</text>
<polyline fill="none" stroke="black" points="265.22,-405 317.22,-405 "/>
<text text-anchor="middle" x="291.22" y="-388.4" font-family="Times Roman,serif" font-size="14.00">1g2</text>
<polyline fill="none" stroke="black" points="265.22,-379 317.22,-379 "/>
<text text-anchor="middle" x="291.22" y="-362.4" font-family="Times Roman,serif" font-size="14.00">ipmi</text>
</g>
<!-- world -->
<g id="node9" class="node"><title>world</title>
<polygon fill="none" stroke="black" points="14.7197,-201 14.7197,-237 607.72,-237 607.72,-201 14.7197,-201"/>
<text text-anchor="middle" x="62.7197" y="-215.4" font-family="Times Roman,serif" font-size="14.00">4948 world</text>
<polyline fill="none" stroke="black" points="110.72,-201 110.72,-237 "/>
<text text-anchor="middle" x="138.72" y="-215.4" font-family="Times Roman,serif" font-size="14.00">public</text>
<polyline fill="none" stroke="black" points="166.72,-201 166.72,-237 "/>
<text text-anchor="middle" x="191.72" y="-215.4" font-family="Times Roman,serif" font-size="14.00">front</text>
<polyline fill="none" stroke="black" points="216.72,-201 216.72,-237 "/>
<text text-anchor="middle" x="240.72" y="-215.4" font-family="Times Roman,serif" font-size="14.00">back</text>
<polyline fill="none" stroke="black" points="264.72,-201 264.72,-237 "/>
<text text-anchor="middle" x="307.22" y="-215.4" font-family="Times Roman,serif" font-size="14.00">sepia ipmi</text>
<polyline fill="none" stroke="black" points="349.72,-201 349.72,-237 "/>
<text text-anchor="middle" x="380.72" y="-215.4" font-family="Times Roman,serif" font-size="14.00">rescue</text>
<polyline fill="none" stroke="black" points="411.72,-201 411.72,-237 "/>
<text text-anchor="middle" x="481.72" y="-215.4" font-family="Times Roman,serif" font-size="14.00">switch mgmt vlan</text>
<polyline fill="none" stroke="black" points="551.72,-201 551.72,-237 "/>
<text text-anchor="middle" x="579.72" y="-215.4" font-family="Times Roman,serif" font-size="14.00">mgmt</text>
</g>
<!-- vercoi&#45;&gt;world -->
<g id="edge53" class="edge"><title>vercoi:1g2&#45;&gt;world:rescue</title>
<path fill="none" stroke="brown" d="M318.22,-392C327.515,-392 381.22,-246.295 381.22,-237"/>
<text text-anchor="middle" x="432.22" y="-300.4" font-family="Times Roman,serif" font-size="14.00">hypervisor access,</text>
<text text-anchor="middle" x="432.22" y="-282.4" font-family="Times Roman,serif" font-size="14.00">hypervisor ipmi</text>
</g>
<!-- vercoi&#45;&gt;slow -->
<g id="edge39" class="edge"><title>vercoi:1g1&#45;&gt;slow:front</title>
<path fill="none" stroke="green" d="M317.22,-418C346.331,-418 323.432,-455.059 317.22,-483.5 311.533,-509.535 292.22,-511.351 292.22,-538"/>
</g>
<!-- vercoi&#45;&gt;ipmi -->
<g id="edge21" class="edge"><title>vercoi:ipmi&#45;&gt;ipmi:sepia_ipmi</title>
<path fill="none" stroke="blue" d="M291.22,-353C291.22,-310.846 205.22,-355.154 205.22,-313"/>
</g>
<!-- gw -->
<g id="node4" class="node"><title>gw</title>
<polygon fill="none" stroke="black" points="35.2197,-101 35.2197,-137 89.2197,-137 89.2197,-101 35.2197,-101"/>
<text text-anchor="middle" x="62.2197" y="-115.4" font-family="Times Roman,serif" font-size="14.00">gw</text>
</g>
<!-- force10_tor -->
<g id="node5" class="node"><title>force10_tor</title>
<polygon fill="none" stroke="black" points="45.7197,-785 45.7197,-821 318.72,-821 318.72,-785 45.7197,-785"/>
<text text-anchor="middle" x="130.22" y="-799.4" font-family="Times Roman,serif" font-size="14.00">4x force10 top&#45;of&#45;rack</text>
<polyline fill="none" stroke="black" points="214.72,-785 214.72,-821 "/>
<text text-anchor="middle" x="238.72" y="-799.4" font-family="Times Roman,serif" font-size="14.00">back</text>
<polyline fill="none" stroke="black" points="262.72,-785 262.72,-821 "/>
<text text-anchor="middle" x="290.72" y="-799.4" font-family="Times Roman,serif" font-size="14.00">mgmt</text>
</g>
<!-- force10_tor&#45;&gt;plana -->
<g id="edge7" class="edge"><title>force10_tor:back&#45;&gt;plana:10g1</title>
<path fill="none" stroke="#cdcd00" d="M239.22,-785C239.22,-771.939 236.052,-766.231 234.32,-757.192"/>
<polygon fill="#cdcd00" stroke="#cdcd00" points="234.299,-756.951 229.775,-751.335 233.22,-745 237.743,-750.616 234.299,-756.951"/>
</g>
<!-- force10_tor&#45;&gt;burnupi -->
<g id="edge9" class="edge"><title>force10_tor:back&#45;&gt;burnupi:10g1</title>
<path fill="none" stroke="#cdcd00" d="M239.22,-785C239.22,-751.883 367.034,-775.3 396.991,-755.433"/>
<polygon fill="#cdcd00" stroke="#cdcd00" points="397.068,-755.303 396.709,-748.101 403.22,-745 403.578,-752.202 397.068,-755.303"/>
</g>
<!-- force10_tor&#45;&gt;vercoi -->
<g id="edge11" class="edge"><title>force10_tor:tor&#45;&gt;vercoi:10g1</title>
<path fill="none" stroke="black" stroke-width="2" d="M128.676,-775.026C125.089,-764.671 116.265,-760.606 113.22,-746 101.246,-688.568 99.4421,-671.026 113.22,-614 122.136,-577.096 125.802,-565.267 152.22,-538 175.198,-514.282 186.534,-514.205 217.22,-502 244.827,-491.019 280.778,-510.705 289.334,-493.051"/>
<polygon fill="black" stroke="black" points="128.69,-775.118 125.773,-785.688 129.455,-780.059 130.22,-785 130.22,-785 130.22,-785 129.455,-780.059 134.667,-784.312 128.69,-775.118 128.69,-775.118"/>
<polygon fill="black" stroke="black" points="289.376,-492.829 295.642,-483.83 290.298,-487.914 291.22,-483 291.22,-483 291.22,-483 290.298,-487.914 286.797,-482.17 289.376,-492.829 289.376,-492.829"/>
</g>
<!-- force10_tor&#45;&gt;world -->
<g id="edge26" class="edge"><title>force10_tor:mgmt&#45;&gt;world:switch_mgmt</title>
<path fill="none" stroke="red" d="M320.22,-803C434.967,-803 547.22,-794.748 547.22,-680 547.22,-680 547.22,-680 547.22,-295 547.22,-290.16 482.22,-241.84 482.22,-237"/>
</g>
<!-- force10_interconnect -->
<g id="node6" class="node"><title>force10_interconnect</title>
<polygon fill="none" stroke="black" points="67.7197,-861 67.7197,-897 248.72,-897 248.72,-861 67.7197,-861"/>
<text text-anchor="middle" x="130.22" y="-875.4" font-family="Times Roman,serif" font-size="14.00">2x force10 aggr</text>
<polyline fill="none" stroke="black" points="192.72,-861 192.72,-897 "/>
<text text-anchor="middle" x="220.72" y="-875.4" font-family="Times Roman,serif" font-size="14.00">mgmt</text>
</g>
<!-- force10_interconnect&#45;&gt;force10_tor -->
<g id="edge2" class="edge"><title>force10_interconnect:ic&#45;&gt;force10_tor:tor</title>
<path fill="none" stroke="black" stroke-width="2" d="M130.22,-850.968C130.22,-843.545 130.22,-838.486 130.22,-831.07"/>
<polygon fill="black" stroke="black" points="130.22,-851 125.72,-861 130.22,-856 130.22,-861 130.22,-861 130.22,-861 130.22,-856 134.72,-861 130.22,-851 130.22,-851"/>
<polygon fill="black" stroke="black" points="130.22,-831 134.72,-821 130.22,-826 130.22,-821 130.22,-821 130.22,-821 130.22,-826 125.72,-821 130.22,-831 130.22,-831"/>
</g>
<!-- force10_interconnect&#45;&gt;world -->
<g id="edge4" class="edge"><title>force10_interconnect:ic&#45;&gt;world:trunk</title>
<path fill="none" stroke="black" stroke-width="2" d="M56.2069,-878.15C24.8877,-872.491 18.2197,-839.361 18.2197,-803 18.2197,-803 18.2197,-803 17.2197,-294 17.2197,-265.071 -10.1236,-229.915 4.36868,-221.087"/>
<polygon fill="black" stroke="black" points="56.2555,-878.154 65.8391,-883.484 61.2376,-878.577 66.2197,-879 66.2197,-879 66.2197,-879 61.2376,-878.577 66.6002,-874.516 56.2555,-878.154 56.2555,-878.154"/>
<polygon fill="black" stroke="black" points="4.4367,-221.072 15.1522,-223.402 9.32818,-220.036 14.2197,-219 14.2197,-219 14.2197,-219 9.32818,-220.036 13.2872,-214.598 4.4367,-221.072 4.4367,-221.072"/>
</g>
<!-- force10_interconnect&#45;&gt;world -->
<g id="edge28" class="edge"><title>force10_interconnect:mgmt&#45;&gt;world:switch_mgmt</title>
<path fill="none" stroke="red" d="M250.22,-879C288.388,-879 585.22,-841.168 585.22,-803 585.22,-803 585.22,-803 585.22,-295 585.22,-281.395 572.717,-283.274 561.22,-276 559.152,-274.692 482.22,-239.447 482.22,-237"/>
</g>
<!-- world&#45;&gt;gw -->
<g id="edge44" class="edge"><title>world:trunk&#45;&gt;gw</title>
<path fill="none" stroke="black" stroke-width="2" d="M62.2197,-190.793C62.2197,-175.792 62.2197,-160.14 62.2197,-147.294"/>
<polygon fill="black" stroke="black" points="62.2198,-191 57.7197,-201 62.2197,-196 62.2197,-201 62.2197,-201 62.2197,-201 62.2197,-196 66.7197,-201 62.2198,-191 62.2198,-191"/>
<polygon fill="black" stroke="black" points="62.2198,-147.238 66.7197,-137.238 62.2197,-142.238 62.2197,-137.238 62.2197,-137.238 62.2197,-137.238 62.2197,-142.238 57.7197,-137.238 62.2198,-147.238 62.2198,-147.238"/>
</g>
<!-- world&#45;&gt;gw -->
<g id="edge46" class="edge"><title>world:pub&#45;&gt;gw</title>
<path fill="none" stroke="#ffa500" d="M138.22,-201C138.22,-177.949 111.22,-188.594 95.2197,-172 85.2886,-161.7 76.8252,-147.931 70.9564,-137.009"/>
</g>
<!-- some_router -->
<g id="node18" class="node"><title>some_router</title>
<polygon fill="none" stroke="black" points="107.22,-101 107.22,-137 211.22,-137 211.22,-101 107.22,-101"/>
<text text-anchor="middle" x="159.22" y="-115.4" font-family="Times Roman,serif" font-size="14.00">some_router</text>
</g>
<!-- world&#45;&gt;some_router -->
<g id="edge48" class="edge"><title>world:pub&#45;&gt;some_router</title>
<path fill="none" stroke="#ffa500" d="M138.22,-201C138.22,-178.516 145.721,-153.617 151.757,-137.222"/>
</g>
<!-- slow&#45;&gt;vercoi -->
<g id="edge41" class="edge"><title>slow:tor&#45;&gt;vercoi:10g2</title>
<path fill="none" stroke="black" stroke-width="2" d="M214.719,-527.897C221.538,-508.326 250.368,-514.639 275.22,-502 293.401,-492.754 306.077,-500.585 317.22,-483.5 324.263,-472.702 330.429,-456.461 326.255,-448.595"/>
<polygon fill="black" stroke="black" points="214.688,-528.108 208.768,-537.339 213.954,-533.054 213.22,-538 213.22,-538 213.22,-538 213.954,-533.054 217.671,-538.661 214.688,-528.108 214.688,-528.108"/>
<polygon fill="black" stroke="black" points="326.133,-448.533 319.259,-439.989 321.677,-446.266 317.22,-444 317.22,-444 317.22,-444 321.677,-446.266 315.18,-448.011 326.133,-448.533 326.133,-448.533"/>
<text text-anchor="middle" x="284.22" y="-507.4" font-family="Times Roman,serif" font-size="14.00">1g</text>
</g>
<!-- slow&#45;&gt;world -->
<g id="edge30" class="edge"><title>slow:mgmt&#45;&gt;world:switch_mgmt</title>
<path fill="none" stroke="red" d="M346.22,-539C346.22,-419.061 460.64,-428.846 495.22,-314 500.089,-297.828 497.925,-292.671 495.22,-276 492.293,-257.965 482.22,-255.271 482.22,-237"/>
</g>
<!-- slow&#45;&gt;world -->
<g id="edge13" class="edge"><title>slow:tor&#45;&gt;world:trunk</title>
<path fill="none" stroke="black" stroke-width="2" d="M149.097,-556.72C16.1878,-549.16 60.0142,-389.863 62.1416,-247.238"/>
<polygon fill="black" stroke="black" points="149.223,-556.723 159.095,-561.498 154.222,-556.862 159.22,-557 159.22,-557 159.22,-557 154.222,-556.862 159.344,-552.502 149.223,-556.723 149.223,-556.723"/>
<polygon fill="black" stroke="black" points="62.1433,-247 66.7195,-237.034 62.1815,-242 62.2197,-237 62.2197,-237 62.2197,-237 62.1815,-242 57.7198,-236.966 62.1433,-247 62.1433,-247"/>
</g>
<!-- ipmi&#45;&gt;world -->
<g id="edge32" class="edge"><title>ipmi:mgmt&#45;&gt;world:switch_mgmt</title>
<path fill="none" stroke="red" d="M291.22,-277C291.22,-252.897 317.963,-262.331 341.22,-256 371.726,-247.695 482.22,-268.617 482.22,-237"/>
</g>
<!-- ipmi&#45;&gt;world -->
<g id="edge23" class="edge"><title>ipmi:sepia_ipmi&#45;&gt;world:sepia_ipmi</title>
<path fill="none" stroke="blue" d="M205.22,-277C205.22,-228.305 307.22,-285.695 307.22,-237"/>
</g>
<!-- office -->
<g id="node19" class="node"><title>office</title>
<polygon fill="none" stroke="black" points="205.045,-46.0224 159.22,-61.7248 113.394,-46.0224 113.437,-20.6152 205.002,-20.6152 205.045,-46.0224"/>
<text text-anchor="middle" x="159.22" y="-35.4" font-family="Times Roman,serif" font-size="14.00">office</text>
</g>
<!-- some_router&#45;&gt;office -->
<g id="edge50" class="edge"><title>some_router&#45;&gt;office</title>
<path fill="none" stroke="black" d="M159.22,-100.847C159.22,-89.2295 159.22,-74.0657 159.22,-61.6607"/>
</g>
</g>
</svg>
