<?xml version="1.0" encoding="UTF-8" standalone="no"?>
<!DOCTYPE svg PUBLIC "-//W3C//DTD SVG 1.1//EN"
 "http://www.w3.org/Graphics/SVG/1.1/DTD/svg11.dtd">
<!-- Generated by graphviz version 2.26.3 (20100126.1600)
 -->
<!-- Title: new&#45;sepia&#45;network Pages: 1 -->
<svg width="688pt" height="940pt"
 viewBox="0.00 0.00 687.69 940.00" xmlns="http://www.w3.org/2000/svg" xmlns:xlink="http://www.w3.org/1999/xlink">
<g id="graph1" class="graph" transform="scale(1 1) rotate(0) translate(4 936)">
<title>new&#45;sepia&#45;network</title>
<polygon fill="white" stroke="white" points="-4,5 -4,-936 684.69,-936 684.69,5 -4,5"/>
<g id="graph3" class="cluster"><title>cluster_dh_managed</title>
<polygon fill="none" stroke="#858585" stroke-dasharray="1,5" points="171.69,-8 171.69,-172 291.69,-172 291.69,-8 171.69,-8"/>
<text text-anchor="middle" x="231.69" y="-155.4" font-family="Times Roman,serif" font-size="14.00">DH managed</text>
</g>
<!-- plana -->
<g id="node1" class="node"><title>plana</title>
<polygon fill="none" stroke="black" points="194.19,-649 194.19,-779 331.19,-779 331.19,-649 194.19,-649"/>
<text text-anchor="middle" x="236.69" y="-710.4" font-family="Times Roman,serif" font-size="14.00">96x plana</text>
<polyline fill="none" stroke="black" points="279.19,-649 279.19,-779 "/>
<text text-anchor="middle" x="305.19" y="-762.4" font-family="Times Roman,serif" font-size="14.00">10g1</text>
<polyline fill="none" stroke="black" points="279.19,-753 331.19,-753 "/>
<text text-anchor="middle" x="305.19" y="-736.4" font-family="Times Roman,serif" font-size="14.00">10g2</text>
<polyline fill="none" stroke="black" points="279.19,-727 331.19,-727 "/>
<text text-anchor="middle" x="305.19" y="-710.4" font-family="Times Roman,serif" font-size="14.00">1g1</text>
<polyline fill="none" stroke="black" points="279.19,-701 331.19,-701 "/>
<text text-anchor="middle" x="305.19" y="-684.4" font-family="Times Roman,serif" font-size="14.00">1g2</text>
<polyline fill="none" stroke="black" points="279.19,-675 331.19,-675 "/>
<text text-anchor="middle" x="305.19" y="-658.4" font-family="Times Roman,serif" font-size="14.00">ipmi</text>
</g>
<!-- slow -->
<g id="node14" class="node"><title>slow</title>
<polygon fill="none" stroke="black" points="233.19,-573 233.19,-609 446.19,-609 446.19,-573 233.19,-573"/>
<text text-anchor="middle" x="286.69" y="-587.4" font-family="Times Roman,serif" font-size="14.00">4x 2960g tor</text>
<polyline fill="none" stroke="black" points="340.19,-573 340.19,-609 "/>
<text text-anchor="middle" x="365.19" y="-587.4" font-family="Times Roman,serif" font-size="14.00">front</text>
<polyline fill="none" stroke="black" points="390.19,-573 390.19,-609 "/>
<text text-anchor="middle" x="418.19" y="-587.4" font-family="Times Roman,serif" font-size="14.00">mgmt</text>
</g>
<!-- plana&#45;&gt;slow -->
<g id="edge35" class="edge"><title>plana:1g1&#45;&gt;slow:front</title>
<path fill="none" stroke="green" d="M332.69,-714C340.065,-714 337.184,-654.935 339.69,-648 346.772,-628.408 365.69,-629.832 365.69,-609"/>
</g>
<!-- ipmi -->
<g id="node16" class="node"><title>ipmi</title>
<polygon fill="none" stroke="black" points="219.69,-311 219.69,-347 391.69,-347 391.69,-311 219.69,-311"/>
<text text-anchor="middle" x="277.69" y="-325.4" font-family="Times Roman,serif" font-size="14.00">4x 2960g ipmi</text>
<polyline fill="none" stroke="black" points="335.69,-311 335.69,-347 "/>
<text text-anchor="middle" x="363.69" y="-325.4" font-family="Times Roman,serif" font-size="14.00">mgmt</text>
</g>
<!-- plana&#45;&gt;ipmi -->
<g id="edge17" class="edge"><title>plana:ipmi&#45;&gt;ipmi:sepia_ipmi</title>
<path fill="none" stroke="blue" d="M304.69,-648C304.69,-608.637 246.038,-643.072 224.69,-610 207.755,-583.764 188.463,-329 219.69,-329"/>
</g>
<!-- burnupi -->
<g id="node2" class="node"><title>burnupi</title>
<polygon fill="none" stroke="black" points="348.19,-649 348.19,-779 501.19,-779 501.19,-649 348.19,-649"/>
<text text-anchor="middle" x="398.69" y="-710.4" font-family="Times Roman,serif" font-size="14.00">64x burnupi</text>
<polyline fill="none" stroke="black" points="449.19,-649 449.19,-779 "/>
<text text-anchor="middle" x="475.19" y="-762.4" font-family="Times Roman,serif" font-size="14.00">10g1</text>
<polyline fill="none" stroke="black" points="449.19,-753 501.19,-753 "/>
<text text-anchor="middle" x="475.19" y="-736.4" font-family="Times Roman,serif" font-size="14.00">10g2</text>
<polyline fill="none" stroke="black" points="449.19,-727 501.19,-727 "/>
<text text-anchor="middle" x="475.19" y="-710.4" font-family="Times Roman,serif" font-size="14.00">1g1</text>
<polyline fill="none" stroke="black" points="449.19,-701 501.19,-701 "/>
<text text-anchor="middle" x="475.19" y="-684.4" font-family="Times Roman,serif" font-size="14.00">1g2</text>
<polyline fill="none" stroke="black" points="449.19,-675 501.19,-675 "/>
<text text-anchor="middle" x="475.19" y="-658.4" font-family="Times Roman,serif" font-size="14.00">ipmi</text>
</g>
<!-- burnupi&#45;&gt;slow -->
<g id="edge37" class="edge"><title>burnupi:1g1&#45;&gt;slow:front</title>
<path fill="none" stroke="green" d="M502.69,-714C531.805,-714 519.349,-671.648 501.69,-648.5 482.602,-623.479 365.69,-640.471 365.69,-609"/>
</g>
<!-- burnupi&#45;&gt;ipmi -->
<g id="edge19" class="edge"><title>burnupi:ipmi&#45;&gt;ipmi:sepia_ipmi</title>
<path fill="none" stroke="blue" d="M475.69,-649C475.69,-595.042 437.229,-425.292 398.69,-386 397.454,-384.739 277.69,-348.766 277.69,-347"/>
</g>
<!-- vercoi -->
<g id="node3" class="node"><title>vercoi</title>
<polygon fill="none" stroke="black" points="257.69,-387 257.69,-517 389.69,-517 389.69,-387 257.69,-387"/>
<text text-anchor="middle" x="297.69" y="-448.4" font-family="Times Roman,serif" font-size="14.00">8x vercoi</text>
<polyline fill="none" stroke="black" points="337.69,-387 337.69,-517 "/>
<text text-anchor="middle" x="363.69" y="-500.4" font-family="Times Roman,serif" font-size="14.00">10g1</text>
<polyline fill="none" stroke="black" points="337.69,-491 389.69,-491 "/>
<text text-anchor="middle" x="363.69" y="-474.4" font-family="Times Roman,serif" font-size="14.00">10g2</text>
<polyline fill="none" stroke="black" points="337.69,-465 389.69,-465 "/>
<text text-anchor="middle" x="363.69" y="-448.4" font-family="Times Roman,serif" font-size="14.00">1g1</text>
<polyline fill="none" stroke="black" points="337.69,-439 389.69,-439 "/>
<text text-anchor="middle" x="363.69" y="-422.4" font-family="Times Roman,serif" font-size="14.00">1g2</text>
<polyline fill="none" stroke="black" points="337.69,-413 389.69,-413 "/>
<text text-anchor="middle" x="363.69" y="-396.4" font-family="Times Roman,serif" font-size="14.00">ipmi</text>
</g>
<!-- world -->
<g id="node9" class="node"><title>world</title>
<polygon fill="none" stroke="black" points="87.1904,-235 87.1904,-271 680.19,-271 680.19,-235 87.1904,-235"/>
<text text-anchor="middle" x="135.19" y="-249.4" font-family="Times Roman,serif" font-size="14.00">4948 world</text>
<polyline fill="none" stroke="black" points="183.19,-235 183.19,-271 "/>
<text text-anchor="middle" x="211.19" y="-249.4" font-family="Times Roman,serif" font-size="14.00">public</text>
<polyline fill="none" stroke="black" points="239.19,-235 239.19,-271 "/>
<text text-anchor="middle" x="264.19" y="-249.4" font-family="Times Roman,serif" font-size="14.00">front</text>
<polyline fill="none" stroke="black" points="289.19,-235 289.19,-271 "/>
<text text-anchor="middle" x="313.19" y="-249.4" font-family="Times Roman,serif" font-size="14.00">back</text>
<polyline fill="none" stroke="black" points="337.19,-235 337.19,-271 "/>
<text text-anchor="middle" x="379.69" y="-249.4" font-family="Times Roman,serif" font-size="14.00">sepia ipmi</text>
<polyline fill="none" stroke="black" points="422.19,-235 422.19,-271 "/>
<text text-anchor="middle" x="453.19" y="-249.4" font-family="Times Roman,serif" font-size="14.00">rescue</text>
<polyline fill="none" stroke="black" points="484.19,-235 484.19,-271 "/>
<text text-anchor="middle" x="554.19" y="-249.4" font-family="Times Roman,serif" font-size="14.00">switch mgmt vlan</text>
<polyline fill="none" stroke="black" points="624.19,-235 624.19,-271 "/>
<text text-anchor="middle" x="652.19" y="-249.4" font-family="Times Roman,serif" font-size="14.00">mgmt</text>
</g>
<!-- vercoi&#45;&gt;world -->
<g id="edge55" class="edge"><title>vercoi:1g2&#45;&gt;world:rescue</title>
<path fill="none" stroke="brown" d="M390.69,-426C399.986,-426 453.69,-280.295 453.69,-271"/>
<text text-anchor="middle" x="504.69" y="-334.4" font-family="Times Roman,serif" font-size="14.00">hypervisor access,</text>
<text text-anchor="middle" x="504.69" y="-316.4" font-family="Times Roman,serif" font-size="14.00">hypervisor ipmi</text>
</g>
<!-- vercoi&#45;&gt;slow -->
<g id="edge39" class="edge"><title>vercoi:1g1&#45;&gt;slow:front</title>
<path fill="none" stroke="green" d="M389.69,-452C418.802,-452 395.902,-489.059 389.69,-517.5 384.004,-543.535 364.69,-545.351 364.69,-572"/>
</g>
<!-- vercoi&#45;&gt;ipmi -->
<g id="edge21" class="edge"><title>vercoi:ipmi&#45;&gt;ipmi:sepia_ipmi</title>
<path fill="none" stroke="blue" d="M363.69,-387C363.69,-344.846 277.69,-389.154 277.69,-347"/>
</g>
<!-- gw -->
<g id="node4" class="node"><title>gw</title>
<polygon fill="none" stroke="black" points="107.69,-101 107.69,-137 161.69,-137 161.69,-101 107.69,-101"/>
<text text-anchor="middle" x="134.69" y="-115.4" font-family="Times Roman,serif" font-size="14.00">gw</text>
</g>
<!-- gw&#45;&gt;world -->
<g id="edge50" class="edge"><title>gw&#45;&gt;world:trunk</title>
<path fill="none" stroke="black" stroke-dasharray="1,5" d="M107.539,-123.271C76.9913,-129.686 28.7645,-145.028 6.6904,-180 -18.8265,-220.427 37.8842,-253 85.6904,-253"/>
<text text-anchor="middle" x="68.6904" y="-203.4" font-family="Times Roman,serif" font-size="14.00">serial console</text>
<text text-anchor="middle" x="68.6904" y="-185.4" font-family="Times Roman,serif" font-size="14.00">to manage switch</text>
</g>
<!-- force10_tor -->
<g id="node5" class="node"><title>force10_tor</title>
<polygon fill="none" stroke="black" points="118.19,-819 118.19,-855 391.19,-855 391.19,-819 118.19,-819"/>
<text text-anchor="middle" x="202.69" y="-833.4" font-family="Times Roman,serif" font-size="14.00">4x force10 top&#45;of&#45;rack</text>
<polyline fill="none" stroke="black" points="287.19,-819 287.19,-855 "/>
<text text-anchor="middle" x="311.19" y="-833.4" font-family="Times Roman,serif" font-size="14.00">back</text>
<polyline fill="none" stroke="black" points="335.19,-819 335.19,-855 "/>
<text text-anchor="middle" x="363.19" y="-833.4" font-family="Times Roman,serif" font-size="14.00">mgmt</text>
</g>
<!-- force10_tor&#45;&gt;plana -->
<g id="edge7" class="edge"><title>force10_tor:back&#45;&gt;plana:10g1</title>
<path fill="none" stroke="#cdcd00" d="M311.69,-819C311.69,-805.939 308.523,-800.231 306.791,-791.192"/>
<polygon fill="#cdcd00" stroke="#cdcd00" points="306.769,-790.951 302.246,-785.335 305.69,-779 310.214,-784.616 306.769,-790.951"/>
</g>
<!-- force10_tor&#45;&gt;burnupi -->
<g id="edge9" class="edge"><title>force10_tor:back&#45;&gt;burnupi:10g1</title>
<path fill="none" stroke="#cdcd00" d="M311.69,-819C311.69,-785.883 439.505,-809.3 469.462,-789.433"/>
<polygon fill="#cdcd00" stroke="#cdcd00" points="469.539,-789.303 469.18,-782.101 475.69,-779 476.049,-786.202 469.539,-789.303"/>
</g>
<!-- force10_tor&#45;&gt;vercoi -->
<g id="edge11" class="edge"><title>force10_tor:tor&#45;&gt;vercoi:10g1</title>
<path fill="none" stroke="black" stroke-width="2" d="M201.147,-809.026C197.56,-798.671 188.735,-794.606 185.69,-780 173.717,-722.568 171.913,-705.026 185.69,-648 194.606,-611.096 198.273,-599.267 224.69,-572 247.669,-548.282 259.005,-548.205 289.69,-536 317.298,-525.019 353.249,-544.705 361.805,-527.051"/>
<polygon fill="black" stroke="black" points="201.161,-809.118 198.243,-819.688 201.926,-814.059 202.69,-819 202.69,-819 202.69,-819 201.926,-814.059 207.137,-818.312 201.161,-809.118 201.161,-809.118"/>
<polygon fill="black" stroke="black" points="361.846,-526.829 368.113,-517.83 362.768,-521.914 363.69,-517 363.69,-517 363.69,-517 362.768,-521.914 359.268,-516.17 361.846,-526.829 361.846,-526.829"/>
</g>
<!-- force10_tor&#45;&gt;world -->
<g id="edge26" class="edge"><title>force10_tor:mgmt&#45;&gt;world:switch_mgmt</title>
<path fill="none" stroke="red" d="M392.69,-837C507.438,-837 619.69,-828.748 619.69,-714 619.69,-714 619.69,-714 619.69,-329 619.69,-324.16 554.69,-275.84 554.69,-271"/>
</g>
<!-- force10_interconnect -->
<g id="node6" class="node"><title>force10_interconnect</title>
<polygon fill="none" stroke="black" points="140.19,-895 140.19,-931 321.19,-931 321.19,-895 140.19,-895"/>
<text text-anchor="middle" x="202.69" y="-909.4" font-family="Times Roman,serif" font-size="14.00">2x force10 aggr</text>
<polyline fill="none" stroke="black" points="265.19,-895 265.19,-931 "/>
<text text-anchor="middle" x="293.19" y="-909.4" font-family="Times Roman,serif" font-size="14.00">mgmt</text>
</g>
<!-- force10_interconnect&#45;&gt;force10_tor -->
<g id="edge2" class="edge"><title>force10_interconnect:ic&#45;&gt;force10_tor:tor</title>
<path fill="none" stroke="black" stroke-width="2" d="M202.69,-884.968C202.69,-877.545 202.69,-872.486 202.69,-865.07"/>
<polygon fill="black" stroke="black" points="202.69,-885 198.19,-895 202.69,-890 202.69,-895 202.69,-895 202.69,-895 202.69,-890 207.19,-895 202.69,-885 202.69,-885"/>
<polygon fill="black" stroke="black" points="202.69,-865 207.19,-855 202.69,-860 202.69,-855 202.69,-855 202.69,-855 202.69,-860 198.19,-855 202.69,-865 202.69,-865"/>
</g>
<!-- force10_interconnect&#45;&gt;world -->
<g id="edge4" class="edge"><title>force10_interconnect:ic&#45;&gt;world:trunk</title>
<path fill="none" stroke="black" stroke-width="2" d="M128.678,-912.15C97.3584,-906.491 90.6904,-873.361 90.6904,-837 90.6904,-837 90.6904,-837 89.6904,-328 89.6904,-299.071 62.3472,-263.915 76.8394,-255.087"/>
<polygon fill="black" stroke="black" points="128.726,-912.154 138.31,-917.484 133.708,-912.577 138.69,-913 138.69,-913 138.69,-913 133.708,-912.577 139.071,-908.516 128.726,-912.154 128.726,-912.154"/>
<polygon fill="black" stroke="black" points="76.9074,-255.072 87.6229,-257.402 81.7989,-254.036 86.6904,-253 86.6904,-253 86.6904,-253 81.7989,-254.036 85.7579,-248.598 76.9074,-255.072 76.9074,-255.072"/>
</g>
<!-- force10_interconnect&#45;&gt;world -->
<g id="edge28" class="edge"><title>force10_interconnect:mgmt&#45;&gt;world:switch_mgmt</title>
<path fill="none" stroke="red" d="M322.69,-913C360.858,-913 657.69,-875.168 657.69,-837 657.69,-837 657.69,-837 657.69,-329 657.69,-315.395 645.187,-317.274 633.69,-310 631.622,-308.692 554.69,-273.447 554.69,-271"/>
</g>
<!-- world&#45;&gt;gw -->
<g id="edge44" class="edge"><title>world:trunk&#45;&gt;gw</title>
<path fill="none" stroke="black" stroke-width="2" d="M134.69,-224.707C134.69,-197.389 134.69,-167.989 134.69,-147.146"/>
<polygon fill="black" stroke="black" points="134.69,-225 130.19,-235 134.69,-230 134.69,-235 134.69,-235 134.69,-235 134.69,-230 139.19,-235 134.69,-225 134.69,-225"/>
<polygon fill="black" stroke="black" points="134.69,-147.083 139.19,-137.083 134.69,-142.083 134.69,-137.083 134.69,-137.083 134.69,-137.083 134.69,-142.083 130.19,-137.083 134.69,-147.083 134.69,-147.083"/>
</g>
<!-- world&#45;&gt;gw -->
<g id="edge46" class="edge"><title>world:pub&#45;&gt;gw</title>
<path fill="none" stroke="#ffa500" d="M210.69,-235C210.69,-201.1 186.209,-200.395 167.69,-172 160.23,-160.56 152.119,-147.543 145.805,-137.271"/>
</g>
<!-- some_router -->
<g id="node18" class="node"><title>some_router</title>
<polygon fill="none" stroke="black" points="179.69,-101 179.69,-137 283.69,-137 283.69,-101 179.69,-101"/>
<text text-anchor="middle" x="231.69" y="-115.4" font-family="Times Roman,serif" font-size="14.00">some_router</text>
</g>
<!-- world&#45;&gt;some_router -->
<g id="edge48" class="edge"><title>world:pub&#45;&gt;some_router</title>
<path fill="none" stroke="#ffa500" d="M210.69,-235C210.69,-200.003 220.06,-160.002 226.282,-137.298"/>
</g>
<!-- slow&#45;&gt;vercoi -->
<g id="edge41" class="edge"><title>slow:tor&#45;&gt;vercoi:10g2</title>
<path fill="none" stroke="black" stroke-width="2" d="M287.19,-561.897C294.009,-542.326 322.839,-548.639 347.69,-536 365.871,-526.754 378.547,-534.585 389.69,-517.5 396.734,-506.702 402.9,-490.461 398.726,-482.595"/>
<polygon fill="black" stroke="black" points="287.158,-562.108 281.239,-571.339 286.424,-567.054 285.69,-572 285.69,-572 285.69,-572 286.424,-567.054 290.142,-572.661 287.158,-562.108 287.158,-562.108"/>
<polygon fill="black" stroke="black" points="398.604,-482.533 391.73,-473.989 394.147,-480.266 389.69,-478 389.69,-478 389.69,-478 394.147,-480.266 387.651,-482.011 398.604,-482.533 398.604,-482.533"/>
<text text-anchor="middle" x="356.69" y="-541.4" font-family="Times Roman,serif" font-size="14.00">1g</text>
</g>
<!-- slow&#45;&gt;world -->
<g id="edge30" class="edge"><title>slow:mgmt&#45;&gt;world:switch_mgmt</title>
<path fill="none" stroke="red" d="M418.69,-573C418.69,-453.061 533.111,-462.846 567.69,-348 572.56,-331.828 570.396,-326.671 567.69,-310 564.764,-291.965 554.69,-289.271 554.69,-271"/>
</g>
<!-- slow&#45;&gt;world -->
<g id="edge13" class="edge"><title>slow:tor&#45;&gt;world:trunk</title>
<path fill="none" stroke="black" stroke-width="2" d="M221.568,-590.72C88.6585,-583.16 132.485,-423.863 134.612,-281.238"/>
<polygon fill="black" stroke="black" points="221.694,-590.723 231.566,-595.498 226.692,-590.862 231.69,-591 231.69,-591 231.69,-591 226.692,-590.862 231.815,-586.502 221.694,-590.723 221.694,-590.723"/>
<polygon fill="black" stroke="black" points="134.614,-281 139.19,-271.034 134.652,-276 134.69,-271 134.69,-271 134.69,-271 134.652,-276 130.191,-270.966 134.614,-281 134.614,-281"/>
</g>
<!-- ipmi&#45;&gt;world -->
<g id="edge32" class="edge"><title>ipmi:mgmt&#45;&gt;world:switch_mgmt</title>
<path fill="none" stroke="red" d="M363.69,-311C363.69,-286.897 390.434,-296.331 413.69,-290 444.197,-281.695 554.69,-302.617 554.69,-271"/>
</g>
<!-- ipmi&#45;&gt;world -->
<g id="edge23" class="edge"><title>ipmi:sepia_ipmi&#45;&gt;world:sepia_ipmi</title>
<path fill="none" stroke="blue" d="M277.69,-311C277.69,-262.305 379.69,-319.695 379.69,-271"/>
</g>
<!-- office -->
<g id="node19" class="node"><title>office</title>
<polygon fill="none" stroke="black" points="277.516,-46.0224 231.69,-61.7248 185.865,-46.0224 185.908,-20.6152 277.473,-20.6152 277.516,-46.0224"/>
<text text-anchor="middle" x="231.69" y="-35.4" font-family="Times Roman,serif" font-size="14.00">office</text>
</g>
<!-- some_router&#45;&gt;office -->
<g id="edge52" class="edge"><title>some_router&#45;&gt;office</title>
<path fill="none" stroke="black" d="M231.69,-100.847C231.69,-89.2295 231.69,-74.0657 231.69,-61.6607"/>
</g>
</g>
</svg>
