<?xml version="1.0" encoding="UTF-8" standalone="no"?>
<!DOCTYPE svg PUBLIC "-//W3C//DTD SVG 1.1//EN"
 "http://www.w3.org/Graphics/SVG/1.1/DTD/svg11.dtd">
<!-- Generated by graphviz version 2.26.3 (20100126.1600)
 -->
<!-- Title: new&#45;sepia&#45;network Pages: 1 -->
<svg width="875pt" height="898pt"
 viewBox="0.00 0.00 875.20 898.00" xmlns="http://www.w3.org/2000/svg" xmlns:xlink="http://www.w3.org/1999/xlink">
<g id="graph1" class="graph" transform="scale(1 1) rotate(0) translate(4 894)">
<title>new&#45;sepia&#45;network</title>
<polygon fill="white" stroke="white" points="-4,5 -4,-894 872.2,-894 872.2,5 -4,5"/>
<g id="graph3" class="cluster"><title>cluster_dh_managed</title>
<polygon fill="none" stroke="#858585" stroke-dasharray="1,5" points="362.2,-8 362.2,-172 482.2,-172 482.2,-8 362.2,-8"/>
<text text-anchor="middle" x="422.2" y="-155.4" font-family="Times Roman,serif" font-size="14.00">DH managed</text>
</g>
<!-- plana -->
<g id="node1" class="node"><title>plana</title>
<polygon fill="none" stroke="black" points="495.7,-607 495.7,-737 632.7,-737 632.7,-607 495.7,-607"/>
<text text-anchor="middle" x="538.2" y="-668.4" font-family="Times Roman,serif" font-size="14.00">96x plana</text>
<polyline fill="none" stroke="black" points="580.7,-607 580.7,-737 "/>
<text text-anchor="middle" x="606.7" y="-720.4" font-family="Times Roman,serif" font-size="14.00">10g1</text>
<polyline fill="none" stroke="black" points="580.7,-711 632.7,-711 "/>
<text text-anchor="middle" x="606.7" y="-694.4" font-family="Times Roman,serif" font-size="14.00">10g2</text>
<polyline fill="none" stroke="black" points="580.7,-685 632.7,-685 "/>
<text text-anchor="middle" x="606.7" y="-668.4" font-family="Times Roman,serif" font-size="14.00">1g1</text>
<polyline fill="none" stroke="black" points="580.7,-659 632.7,-659 "/>
<text text-anchor="middle" x="606.7" y="-642.4" font-family="Times Roman,serif" font-size="14.00">1g2</text>
<polyline fill="none" stroke="black" points="580.7,-633 632.7,-633 "/>
<text text-anchor="middle" x="606.7" y="-616.4" font-family="Times Roman,serif" font-size="14.00">ipmi</text>
</g>
<!-- slow -->
<g id="node14" class="node"><title>slow</title>
<polygon fill="none" stroke="black" points="343.7,-531 343.7,-567 556.7,-567 556.7,-531 343.7,-531"/>
<text text-anchor="middle" x="397.2" y="-545.4" font-family="Times Roman,serif" font-size="14.00">4x 2960g tor</text>
<polyline fill="none" stroke="black" points="450.7,-531 450.7,-567 "/>
<text text-anchor="middle" x="475.7" y="-545.4" font-family="Times Roman,serif" font-size="14.00">front</text>
<polyline fill="none" stroke="black" points="500.7,-531 500.7,-567 "/>
<text text-anchor="middle" x="528.7" y="-545.4" font-family="Times Roman,serif" font-size="14.00">mgmt</text>
</g>
<!-- plana&#45;&gt;slow -->
<g id="edge35" class="edge"><title>plana:1g1&#45;&gt;slow:front</title>
<path fill="none" stroke="green" d="M634.2,-672C663.315,-672 651.275,-629.324 633.2,-606.5 588.53,-550.093 476.2,-638.952 476.2,-567"/>
</g>
<!-- ipmi -->
<g id="node16" class="node"><title>ipmi</title>
<polygon fill="none" stroke="black" points="92.2001,-101 92.2001,-137 264.2,-137 264.2,-101 92.2001,-101"/>
<text text-anchor="middle" x="150.2" y="-115.4" font-family="Times Roman,serif" font-size="14.00">4x 2960g ipmi</text>
<polyline fill="none" stroke="black" points="208.2,-101 208.2,-137 "/>
<text text-anchor="middle" x="236.2" y="-115.4" font-family="Times Roman,serif" font-size="14.00">mgmt</text>
</g>
<!-- plana&#45;&gt;ipmi -->
<g id="edge17" class="edge"><title>plana:ipmi&#45;&gt;ipmi:sepia_ipmi</title>
<path fill="none" stroke="blue" d="M607.2,-607C607.2,-606.046 336.056,-568.422 335.2,-568 282.781,-542.125 273.269,-524.876 241.2,-476 173.956,-373.515 164.177,-337.658 149.2,-216 144.91,-181.149 150.2,-172.114 150.2,-137"/>
</g>
<!-- burnupi -->
<g id="node2" class="node"><title>burnupi</title>
<polygon fill="none" stroke="black" points="325.7,-607 325.7,-737 478.7,-737 478.7,-607 325.7,-607"/>
<text text-anchor="middle" x="376.2" y="-668.4" font-family="Times Roman,serif" font-size="14.00">64x burnupi</text>
<polyline fill="none" stroke="black" points="426.7,-607 426.7,-737 "/>
<text text-anchor="middle" x="452.7" y="-720.4" font-family="Times Roman,serif" font-size="14.00">10g1</text>
<polyline fill="none" stroke="black" points="426.7,-711 478.7,-711 "/>
<text text-anchor="middle" x="452.7" y="-694.4" font-family="Times Roman,serif" font-size="14.00">10g2</text>
<polyline fill="none" stroke="black" points="426.7,-685 478.7,-685 "/>
<text text-anchor="middle" x="452.7" y="-668.4" font-family="Times Roman,serif" font-size="14.00">1g1</text>
<polyline fill="none" stroke="black" points="426.7,-659 478.7,-659 "/>
<text text-anchor="middle" x="452.7" y="-642.4" font-family="Times Roman,serif" font-size="14.00">1g2</text>
<polyline fill="none" stroke="black" points="426.7,-633 478.7,-633 "/>
<text text-anchor="middle" x="452.7" y="-616.4" font-family="Times Roman,serif" font-size="14.00">ipmi</text>
</g>
<!-- burnupi&#45;&gt;slow -->
<g id="edge37" class="edge"><title>burnupi:1g1&#45;&gt;slow:front</title>
<path fill="none" stroke="green" d="M480.2,-672C491.875,-672 476.2,-578.675 476.2,-567"/>
</g>
<!-- burnupi&#45;&gt;ipmi -->
<g id="edge19" class="edge"><title>burnupi:ipmi&#45;&gt;ipmi:sepia_ipmi</title>
<path fill="none" stroke="blue" d="M452.2,-606C452.2,-559.45 283.898,-595.309 246.2,-568 75.3525,-444.233 -118.767,-119 92.2001,-119"/>
</g>
<!-- vercoi -->
<g id="node3" class="node"><title>vercoi</title>
<polygon fill="none" stroke="black" points="250.2,-345 250.2,-475 382.2,-475 382.2,-345 250.2,-345"/>
<text text-anchor="middle" x="290.2" y="-406.4" font-family="Times Roman,serif" font-size="14.00">8x vercoi</text>
<polyline fill="none" stroke="black" points="330.2,-345 330.2,-475 "/>
<text text-anchor="middle" x="356.2" y="-458.4" font-family="Times Roman,serif" font-size="14.00">10g1</text>
<polyline fill="none" stroke="black" points="330.2,-449 382.2,-449 "/>
<text text-anchor="middle" x="356.2" y="-432.4" font-family="Times Roman,serif" font-size="14.00">10g2</text>
<polyline fill="none" stroke="black" points="330.2,-423 382.2,-423 "/>
<text text-anchor="middle" x="356.2" y="-406.4" font-family="Times Roman,serif" font-size="14.00">1g1</text>
<polyline fill="none" stroke="black" points="330.2,-397 382.2,-397 "/>
<text text-anchor="middle" x="356.2" y="-380.4" font-family="Times Roman,serif" font-size="14.00">1g2</text>
<polyline fill="none" stroke="black" points="330.2,-371 382.2,-371 "/>
<text text-anchor="middle" x="356.2" y="-354.4" font-family="Times Roman,serif" font-size="14.00">ipmi</text>
</g>
<!-- world -->
<g id="node9" class="node"><title>world</title>
<polygon fill="none" stroke="black" points="274.7,-235 274.7,-271 867.7,-271 867.7,-235 274.7,-235"/>
<text text-anchor="middle" x="322.7" y="-249.4" font-family="Times Roman,serif" font-size="14.00">4948 world</text>
<polyline fill="none" stroke="black" points="370.7,-235 370.7,-271 "/>
<text text-anchor="middle" x="398.7" y="-249.4" font-family="Times Roman,serif" font-size="14.00">public</text>
<polyline fill="none" stroke="black" points="426.7,-235 426.7,-271 "/>
<text text-anchor="middle" x="451.7" y="-249.4" font-family="Times Roman,serif" font-size="14.00">front</text>
<polyline fill="none" stroke="black" points="476.7,-235 476.7,-271 "/>
<text text-anchor="middle" x="500.7" y="-249.4" font-family="Times Roman,serif" font-size="14.00">back</text>
<polyline fill="none" stroke="black" points="524.7,-235 524.7,-271 "/>
<text text-anchor="middle" x="567.2" y="-249.4" font-family="Times Roman,serif" font-size="14.00">sepia ipmi</text>
<polyline fill="none" stroke="black" points="609.7,-235 609.7,-271 "/>
<text text-anchor="middle" x="640.7" y="-249.4" font-family="Times Roman,serif" font-size="14.00">rescue</text>
<polyline fill="none" stroke="black" points="671.7,-235 671.7,-271 "/>
<text text-anchor="middle" x="741.7" y="-249.4" font-family="Times Roman,serif" font-size="14.00">switch mgmt vlan</text>
<polyline fill="none" stroke="black" points="811.7,-235 811.7,-271 "/>
<text text-anchor="middle" x="839.7" y="-249.4" font-family="Times Roman,serif" font-size="14.00">mgmt</text>
</g>
<!-- vercoi&#45;&gt;world -->
<g id="edge55" class="edge"><title>vercoi:1g2&#45;&gt;world:rescue</title>
<path fill="none" stroke="brown" d="M383.2,-384C400.761,-384 393.729,-357.746 382.2,-344.5 349.077,-306.444 302.839,-364.472 270.2,-326 259.849,-313.799 259.18,-301.599 270.2,-290 298.631,-260.076 641.2,-312.276 641.2,-271"/>
<text text-anchor="middle" x="333.2" y="-313.4" font-family="Times Roman,serif" font-size="14.00">hypervisor access,</text>
<text text-anchor="middle" x="333.2" y="-295.4" font-family="Times Roman,serif" font-size="14.00">hypervisor ipmi</text>
</g>
<!-- vercoi&#45;&gt;slow -->
<g id="edge39" class="edge"><title>vercoi:1g1&#45;&gt;slow:front</title>
<path fill="none" stroke="green" d="M382.2,-410C449.675,-410 475.2,-462.525 475.2,-530"/>
</g>
<!-- vercoi&#45;&gt;ipmi -->
<g id="edge21" class="edge"><title>vercoi:ipmi&#45;&gt;ipmi:sepia_ipmi</title>
<path fill="none" stroke="blue" d="M356.2,-345C356.2,-322.817 276.77,-338.136 258.2,-326 177.214,-273.073 150.2,-233.747 150.2,-137"/>
</g>
<!-- gw -->
<g id="node4" class="node"><title>gw</title>
<polygon fill="none" stroke="black" points="295.2,-101 295.2,-137 349.2,-137 349.2,-101 295.2,-101"/>
<text text-anchor="middle" x="322.2" y="-115.4" font-family="Times Roman,serif" font-size="14.00">gw</text>
</g>
<!-- gw&#45;&gt;world -->
<g id="edge50" class="edge"><title>gw&#45;&gt;world:trunk</title>
<path fill="none" stroke="black" stroke-dasharray="1,5" d="M310.618,-137.22C301.893,-149.267 288.787,-164.224 273.2,-172 257.411,-179.877 206.032,-166.909 194.2,-180 162.144,-215.466 225.394,-253 273.2,-253"/>
<text text-anchor="middle" x="256.2" y="-203.4" font-family="Times Roman,serif" font-size="14.00">serial console</text>
<text text-anchor="middle" x="256.2" y="-185.4" font-family="Times Roman,serif" font-size="14.00">to manage switch</text>
</g>
<!-- force10_tor -->
<g id="node5" class="node"><title>force10_tor</title>
<polygon fill="none" stroke="black" points="213.7,-777 213.7,-813 486.7,-813 486.7,-777 213.7,-777"/>
<text text-anchor="middle" x="298.2" y="-791.4" font-family="Times Roman,serif" font-size="14.00">4x force10 top&#45;of&#45;rack</text>
<polyline fill="none" stroke="black" points="382.7,-777 382.7,-813 "/>
<text text-anchor="middle" x="406.7" y="-791.4" font-family="Times Roman,serif" font-size="14.00">back</text>
<polyline fill="none" stroke="black" points="430.7,-777 430.7,-813 "/>
<text text-anchor="middle" x="458.7" y="-791.4" font-family="Times Roman,serif" font-size="14.00">mgmt</text>
</g>
<!-- force10_tor&#45;&gt;plana -->
<g id="edge7" class="edge"><title>force10_tor:back&#45;&gt;plana:10g1</title>
<path fill="none" stroke="#cdcd00" d="M407.2,-777C407.2,-757.303 558.281,-758.748 597.822,-744.584"/>
<polygon fill="#cdcd00" stroke="#cdcd00" points="597.87,-744.546 600.019,-737.663 607.2,-737 605.05,-743.883 597.87,-744.546"/>
</g>
<!-- force10_tor&#45;&gt;burnupi -->
<g id="edge9" class="edge"><title>force10_tor:back&#45;&gt;burnupi:10g1</title>
<path fill="none" stroke="#cdcd00" d="M407.2,-777C407.2,-754.987 437.567,-760.224 448.955,-748.43"/>
<polygon fill="#cdcd00" stroke="#cdcd00" points="449.022,-748.249 447.361,-741.232 453.2,-737 454.861,-744.017 449.022,-748.249"/>
</g>
<!-- force10_tor&#45;&gt;vercoi -->
<g id="edge11" class="edge"><title>force10_tor:tor&#45;&gt;vercoi:10g1</title>
<path fill="none" stroke="black" stroke-width="2" d="M298.214,-766.826C298.499,-664.054 303.561,-632.774 335.2,-530 341.756,-508.705 352.375,-502.768 355.383,-485.318"/>
<polygon fill="black" stroke="black" points="298.213,-767 293.7,-776.994 298.207,-772 298.2,-777 298.2,-777 298.2,-777 298.207,-772 302.7,-777.006 298.213,-767 298.213,-767"/>
<polygon fill="black" stroke="black" points="355.41,-484.969 360.686,-475.355 355.805,-479.984 356.2,-475 356.2,-475 356.2,-475 355.805,-479.984 351.714,-474.645 355.41,-484.969 355.41,-484.969"/>
</g>
<!-- force10_tor&#45;&gt;world -->
<g id="edge26" class="edge"><title>force10_tor:mgmt&#45;&gt;world:switch_mgmt</title>
<path fill="none" stroke="red" d="M488.2,-795C586.198,-795 671.2,-769.998 671.2,-672 671.2,-672 671.2,-672 671.2,-410 671.2,-352.882 682.93,-335.694 717.2,-290 725.573,-278.835 742.2,-284.956 742.2,-271"/>
</g>
<!-- force10_interconnect -->
<g id="node6" class="node"><title>force10_interconnect</title>
<polygon fill="none" stroke="black" points="235.7,-853 235.7,-889 416.7,-889 416.7,-853 235.7,-853"/>
<text text-anchor="middle" x="298.2" y="-867.4" font-family="Times Roman,serif" font-size="14.00">2x force10 aggr</text>
<polyline fill="none" stroke="black" points="360.7,-853 360.7,-889 "/>
<text text-anchor="middle" x="388.7" y="-867.4" font-family="Times Roman,serif" font-size="14.00">mgmt</text>
</g>
<!-- force10_interconnect&#45;&gt;force10_tor -->
<g id="edge2" class="edge"><title>force10_interconnect:ic&#45;&gt;force10_tor:tor</title>
<path fill="none" stroke="black" stroke-width="2" d="M298.2,-842.968C298.2,-835.545 298.2,-830.486 298.2,-823.07"/>
<polygon fill="black" stroke="black" points="298.2,-843 293.7,-853 298.2,-848 298.2,-853 298.2,-853 298.2,-853 298.2,-848 302.7,-853 298.2,-843 298.2,-843"/>
<polygon fill="black" stroke="black" points="298.2,-823 302.7,-813 298.2,-818 298.2,-813 298.2,-813 298.2,-813 298.2,-818 293.7,-813 298.2,-823 298.2,-823"/>
</g>
<!-- force10_interconnect&#45;&gt;world -->
<g id="edge4" class="edge"><title>force10_interconnect:ic&#45;&gt;world:trunk</title>
<path fill="none" stroke="black" stroke-width="2" d="M224.034,-870.161C192.126,-864.57 184.2,-831.8 184.2,-795 184.2,-795 184.2,-795 183.2,-409 183.2,-332.338 192.99,-259.813 263.798,-253.452"/>
<polygon fill="black" stroke="black" points="224.234,-870.177 233.83,-875.485 229.217,-870.589 234.2,-871 234.2,-871 234.2,-871 229.217,-870.589 234.57,-866.515 224.234,-870.177 224.234,-870.177"/>
<polygon fill="black" stroke="black" points="264.21,-253.434 274.396,-257.496 269.205,-253.217 274.2,-253 274.2,-253 274.2,-253 269.205,-253.217 274.005,-248.504 264.21,-253.434 264.21,-253.434"/>
</g>
<!-- force10_interconnect&#45;&gt;world -->
<g id="edge28" class="edge"><title>force10_interconnect:mgmt&#45;&gt;world:switch_mgmt</title>
<path fill="none" stroke="red" d="M418.2,-871C489.777,-871 731.2,-866.577 731.2,-795 731.2,-795 731.2,-795 731.2,-410 731.2,-348.029 742.2,-332.971 742.2,-271"/>
</g>
<!-- world&#45;&gt;gw -->
<g id="edge44" class="edge"><title>world:trunk&#45;&gt;gw</title>
<path fill="none" stroke="black" stroke-width="2" d="M322.2,-224.707C322.2,-197.389 322.2,-167.989 322.2,-147.146"/>
<polygon fill="black" stroke="black" points="322.2,-225 317.7,-235 322.2,-230 322.2,-235 322.2,-235 322.2,-235 322.2,-230 326.7,-235 322.2,-225 322.2,-225"/>
<polygon fill="black" stroke="black" points="322.2,-147.083 326.7,-137.083 322.2,-142.083 322.2,-137.083 322.2,-137.083 322.2,-137.083 322.2,-142.083 317.7,-137.083 322.2,-147.083 322.2,-147.083"/>
</g>
<!-- world&#45;&gt;gw -->
<g id="edge46" class="edge"><title>world:pub&#45;&gt;gw</title>
<path fill="none" stroke="#ffa500" d="M398.2,-235C398.2,-232.126 355.894,-168.968 334.411,-137.082"/>
</g>
<!-- world&#45;&gt;ipmi -->
<g id="edge23" class="edge"><title>world:sepia_ipmi&#45;&gt;ipmi:sepia_ipmi</title>
<path fill="none" stroke="blue" d="M567.2,-235C567.2,-214.778 405.467,-222.14 386.2,-216 355.105,-206.091 352.68,-191.665 322.2,-180 306.893,-174.141 302.139,-175.821 286.2,-172 225.506,-157.45 150.2,-199.414 150.2,-137"/>
</g>
<!-- some_router -->
<g id="node18" class="node"><title>some_router</title>
<polygon fill="none" stroke="black" points="370.2,-101 370.2,-137 474.2,-137 474.2,-101 370.2,-101"/>
<text text-anchor="middle" x="422.2" y="-115.4" font-family="Times Roman,serif" font-size="14.00">some_router</text>
</g>
<!-- world&#45;&gt;some_router -->
<g id="edge48" class="edge"><title>world:pub&#45;&gt;some_router</title>
<path fill="none" stroke="#ffa500" d="M398.2,-235C398.2,-225.457 405.254,-225.076 408.2,-216 416.816,-189.459 420.139,-157.115 421.414,-137.295"/>
</g>
<!-- slow&#45;&gt;vercoi -->
<g id="edge41" class="edge"><title>slow:tor&#45;&gt;vercoi:10g2</title>
<path fill="none" stroke="black" stroke-width="2" d="M390.629,-521.533C386.328,-519.333 380.703,-518.043 378.2,-512 375.139,-504.609 377.35,-501.955 378.2,-494 380.41,-473.325 398.385,-448.368 391.858,-439.407"/>
<polygon fill="black" stroke="black" points="390.703,-521.646 392.441,-532.474 393.452,-525.823 396.2,-530 396.2,-530 396.2,-530 393.452,-525.823 399.959,-527.526 390.703,-521.646 390.703,-521.646"/>
<polygon fill="black" stroke="black" points="391.63,-439.327 383.697,-431.756 386.915,-437.663 382.2,-436 382.2,-436 382.2,-436 386.915,-437.663 380.703,-440.244 391.63,-439.327 391.63,-439.327"/>
<text text-anchor="middle" x="387.2" y="-499.4" font-family="Times Roman,serif" font-size="14.00">1g</text>
</g>
<!-- slow&#45;&gt;world -->
<g id="edge30" class="edge"><title>slow:mgmt&#45;&gt;world:switch_mgmt</title>
<path fill="none" stroke="red" d="M558.2,-549C681.434,-549 563.97,-370.59 657.2,-290 686.485,-264.685 742.2,-309.71 742.2,-271"/>
</g>
<!-- slow&#45;&gt;world -->
<g id="edge13" class="edge"><title>slow:tor&#45;&gt;world:trunk</title>
<path fill="none" stroke="black" stroke-width="2" d="M397.396,-520.821C401.243,-420.668 459.904,-371.776 396.2,-290 378.104,-266.771 335.744,-295.077 324.812,-280.861"/>
<polygon fill="black" stroke="black" points="397.392,-521.002 392.701,-530.914 397.296,-526.001 397.2,-531 397.2,-531 397.2,-531 397.296,-526.001 401.699,-531.086 397.392,-521.002 397.392,-521.002"/>
<polygon fill="black" stroke="black" points="324.76,-280.667 326.55,-269.848 323.48,-275.833 322.2,-271 322.2,-271 322.2,-271 323.48,-275.833 317.85,-272.152 324.76,-280.667 324.76,-280.667"/>
</g>
<!-- ipmi&#45;&gt;world -->
<g id="edge32" class="edge"><title>ipmi:mgmt&#45;&gt;world:switch_mgmt</title>
<path fill="none" stroke="red" d="M264.2,-119C289.704,-119 265.702,-156.824 286.2,-172 300.915,-182.894 351.316,-172.919 368.2,-180 391.185,-189.64 388.015,-206.853 411.2,-216 428.28,-222.738 741.2,-215.639 741.2,-234"/>
</g>
<!-- office -->
<g id="node19" class="node"><title>office</title>
<polygon fill="none" stroke="black" points="468.026,-46.0224 422.2,-61.7248 376.375,-46.0224 376.417,-20.6152 467.983,-20.6152 468.026,-46.0224"/>
<text text-anchor="middle" x="422.2" y="-35.4" font-family="Times Roman,serif" font-size="14.00">office</text>
</g>
<!-- some_router&#45;&gt;office -->
<g id="edge52" class="edge"><title>some_router&#45;&gt;office</title>
<path fill="none" stroke="black" d="M422.2,-100.847C422.2,-89.2295 422.2,-74.0657 422.2,-61.6607"/>
</g>
</g>
</svg>
