<?xml version="1.0" encoding="UTF-8" standalone="no"?>
<!DOCTYPE svg PUBLIC "-//W3C//DTD SVG 1.1//EN"
 "http://www.w3.org/Graphics/SVG/1.1/DTD/svg11.dtd">
<!-- Generated by graphviz version 2.36.0 (20140111.2315)
 -->
<!-- Title: senta&#45;interfaces Pages: 1 -->
<svg width="341pt" height="292pt"
 viewBox="0.00 0.00 341.00 292.00" xmlns="http://www.w3.org/2000/svg" xmlns:xlink="http://www.w3.org/1999/xlink">
<g id="graph0" class="graph" transform="scale(1 1) rotate(0) translate(4 288)">
<title>senta&#45;interfaces</title>
<polygon fill="white" stroke="none" points="-4,4 -4,-288 337,-288 337,4 -4,4"/>
<g id="clust1" class="cluster"><title>cluster_phys</title>
</g>
<g id="clust2" class="cluster"><title>cluster_phys_1g</title>
</g>
<g id="clust4" class="cluster"><title>cluster_vlan</title>
</g>
<g id="clust5" class="cluster"><title>cluster_bridge</title>
</g>
<!-- nic_1g1 -->
<g id="node1" class="node"><title>nic_1g1</title>
<polygon fill="none" stroke="black" points="58,-223 58,-259 112,-259 112,-223 58,-223"/>
<text text-anchor="middle" x="85" y="-237.3" font-family="Times,serif" font-size="14.00">1g1</text>
</g>
<!-- nic_1g2 -->
<g id="node2" class="node"><title>nic_1g2</title>
<polygon fill="none" stroke="black" points="130,-223 130,-259 184,-259 184,-223 130,-223"/>
<text text-anchor="middle" x="157" y="-237.3" font-family="Times,serif" font-size="14.00">1g2</text>
</g>
<!-- nic_1g1&#45;&gt;nic_1g2 -->
<!-- br_front -->
<g id="node6" class="node"><title>br_front</title>
<polygon fill="none" stroke="black" points="16.5,-75 16.5,-111 75.5,-111 75.5,-75 16.5,-75"/>
<text text-anchor="middle" x="46" y="-89.3" font-family="Times,serif" font-size="14.00">br&#45;front</text>
</g>
<!-- nic_1g1&#45;&gt;br_front -->
<g id="edge2" class="edge"><title>nic_1g1&#45;&gt;br_front</title>
<path fill="none" stroke="black" d="M75.4677,-222.99C71.0802,-214.508 66.1592,-203.957 63,-194 54.0524,-165.8 49.5272,-131.546 47.4735,-111.329"/>
</g>
<!-- vlan_back -->
<g id="node3" class="node"><title>vlan_back</title>
<polygon fill="none" stroke="black" points="247,-149 247,-185 317,-185 317,-149 247,-149"/>
<text text-anchor="middle" x="282" y="-163.3" font-family="Times,serif" font-size="14.00">vlan&#45;back</text>
</g>
<!-- nic_1g2&#45;&gt;vlan_back -->
<g id="edge3" class="edge"><title>nic_1g2&#45;&gt;vlan_back</title>
<path fill="none" stroke="black" d="M184.067,-224.783C199.839,-215.877 220.089,-204.377 238,-194 242.914,-191.153 248.12,-188.105 253.167,-185.134"/>
</g>
<!-- vlan_ipmi -->
<g id="node4" class="node"><title>vlan_ipmi</title>
<polygon fill="none" stroke="black" points="159,-149 159,-185 229,-185 229,-149 159,-149"/>
<text text-anchor="middle" x="194" y="-163.3" font-family="Times,serif" font-size="14.00">vlan&#45;ipmi</text>
</g>
<!-- nic_1g2&#45;&gt;vlan_ipmi -->
<g id="edge4" class="edge"><title>nic_1g2&#45;&gt;vlan_ipmi</title>
<path fill="none" stroke="black" d="M165.768,-222.937C171.581,-211.626 179.185,-196.828 185.037,-185.441"/>
</g>
<!-- vlan_pub -->
<g id="node5" class="node"><title>vlan_pub</title>
<polygon fill="none" stroke="black" points="75.5,-149 75.5,-185 140.5,-185 140.5,-149 75.5,-149"/>
<text text-anchor="middle" x="108" y="-163.3" font-family="Times,serif" font-size="14.00">vlan&#45;pub</text>
</g>
<!-- nic_1g2&#45;&gt;vlan_pub -->
<g id="edge5" class="edge"><title>nic_1g2&#45;&gt;vlan_pub</title>
<path fill="none" stroke="black" d="M145.388,-222.937C137.69,-211.626 127.619,-196.828 119.869,-185.441"/>
</g>
<!-- br_back -->
<g id="node7" class="node"><title>br_back</title>
<polygon fill="none" stroke="black" points="242,-75 242,-111 300,-111 300,-75 242,-75"/>
<text text-anchor="middle" x="271" y="-89.3" font-family="Times,serif" font-size="14.00">br&#45;back</text>
</g>
<!-- vlan_back&#45;&gt;br_back -->
<g id="edge6" class="edge"><title>vlan_back&#45;&gt;br_back</title>
<path fill="none" stroke="black" d="M279.393,-148.937C277.665,-137.626 275.404,-122.828 273.665,-111.441"/>
</g>
<!-- br_ipmi -->
<g id="node8" class="node"><title>br_ipmi</title>
<polygon fill="none" stroke="black" points="166,-75 166,-111 224,-111 224,-75 166,-75"/>
<text text-anchor="middle" x="195" y="-89.3" font-family="Times,serif" font-size="14.00">br&#45;ipmi</text>
</g>
<!-- vlan_ipmi&#45;&gt;br_ipmi -->
<g id="edge7" class="edge"><title>vlan_ipmi&#45;&gt;br_ipmi</title>
<path fill="none" stroke="black" d="M194.237,-148.937C194.394,-137.626 194.6,-122.828 194.758,-111.441"/>
</g>
<!-- br_pub -->
<g id="node9" class="node"><title>br_pub</title>
<polygon fill="none" stroke="black" points="94,-75 94,-111 148,-111 148,-75 94,-75"/>
<text text-anchor="middle" x="121" y="-89.3" font-family="Times,serif" font-size="14.00">br&#45;pub</text>
</g>
<!-- vlan_pub&#45;&gt;br_pub -->
<g id="edge8" class="edge"><title>vlan_pub&#45;&gt;br_pub</title>
<path fill="none" stroke="black" d="M111.081,-148.937C113.123,-137.626 115.795,-122.828 117.851,-111.441"/>
</g>
<!-- vms -->
<g id="node10" class="node"><title>vms</title>
<polygon fill="none" stroke="black" points="131,-1 131,-37 185,-37 185,-1 131,-1"/>
<text text-anchor="middle" x="158" y="-15.3" font-family="Times,serif" font-size="14.00">VMs</text>
</g>
<!-- br_front&#45;&gt;vms -->
<g id="edge9" class="edge"><title>br_front&#45;&gt;vms</title>
<path fill="none" stroke="black" d="M71.5317,-74.8431C76.0073,-71.8744 80.6299,-68.8329 85,-66 97.0199,-58.2081 110.246,-49.819 122.099,-42.366"/>
<polygon fill="black" stroke="black" points="122.382,-42.1884 133.245,-40.6866 126.618,-39.5315 130.854,-36.8745 130.854,-36.8745 130.854,-36.8745 126.618,-39.5315 128.463,-33.0624 122.382,-42.1884 122.382,-42.1884"/>
</g>
<!-- br_back&#45;&gt;vms -->
<g id="edge10" class="edge"><title>br_back&#45;&gt;vms</title>
<path fill="none" stroke="black" d="M245.483,-74.8205C241.006,-71.8543 236.379,-68.8195 232,-66 219.616,-58.026 205.948,-49.4634 193.764,-41.9134"/>
<polygon fill="black" stroke="black" points="193.7,-41.8743 187.559,-32.7895 189.447,-39.246 185.193,-36.6177 185.193,-36.6177 185.193,-36.6177 189.447,-39.246 182.828,-40.4458 193.7,-41.8743 193.7,-41.8743"/>
</g>
<!-- br_ipmi&#45;&gt;vms -->
<g id="edge11" class="edge"><title>br_ipmi&#45;&gt;vms</title>
<path fill="none" stroke="black" d="M186.232,-74.937C181.872,-66.4537 176.505,-56.0092 171.625,-46.513"/>
<polygon fill="black" stroke="black" points="171.533,-46.335 170.965,-35.3838 169.248,-41.8878 166.963,-37.4407 166.963,-37.4407 166.963,-37.4407 169.248,-41.8878 162.96,-39.4975 171.533,-46.335 171.533,-46.335"/>
</g>
<!-- br_pub&#45;&gt;vms -->
<g id="edge12" class="edge"><title>br_pub&#45;&gt;vms</title>
<path fill="none" stroke="black" d="M129.768,-74.937C134.128,-66.4537 139.495,-56.0092 144.375,-46.513"/>
<polygon fill="black" stroke="black" points="144.467,-46.335 153.04,-39.4975 146.752,-41.8878 149.037,-37.4407 149.037,-37.4407 149.037,-37.4407 146.752,-41.8878 145.035,-35.3838 144.467,-46.335 144.467,-46.335"/>
</g>
</g>
</svg>
