<?xml version="1.0" encoding="UTF-8" standalone="no"?>
<!DOCTYPE svg PUBLIC "-//W3C//DTD SVG 1.1//EN"
 "http://www.w3.org/Graphics/SVG/1.1/DTD/svg11.dtd">
<!-- Generated by graphviz version 2.26.3 (20100126.1600)
 -->
<!-- Title: new&#45;sepia&#45;network Pages: 1 -->
<svg width="688pt" height="898pt"
 viewBox="0.00 0.00 687.69 898.00" xmlns="http://www.w3.org/2000/svg" xmlns:xlink="http://www.w3.org/1999/xlink">
<g id="graph1" class="graph" transform="scale(1 1) rotate(0) translate(4 894)">
<title>new&#45;sepia&#45;network</title>
<polygon fill="white" stroke="white" points="-4,5 -4,-894 684.69,-894 684.69,5 -4,5"/>
<g id="graph3" class="cluster"><title>cluster_dh_managed</title>
<polygon fill="none" stroke="#858585" stroke-dasharray="1,5" points="171.69,-8 171.69,-172 291.69,-172 291.69,-8 171.69,-8"/>
<text text-anchor="middle" x="231.69" y="-155.4" font-family="Times Roman,serif" font-size="14.00">DH managed</text>
</g>
<!-- plana -->
<g id="node1" class="node"><title>plana</title>
<polygon fill="none" stroke="black" points="376.19,-607 376.19,-737 513.19,-737 513.19,-607 376.19,-607"/>
<text text-anchor="middle" x="418.69" y="-668.4" font-family="Times Roman,serif" font-size="14.00">96x plana</text>
<polyline fill="none" stroke="black" points="461.19,-607 461.19,-737 "/>
<text text-anchor="middle" x="487.19" y="-720.4" font-family="Times Roman,serif" font-size="14.00">10g1</text>
<polyline fill="none" stroke="black" points="461.19,-711 513.19,-711 "/>
<text text-anchor="middle" x="487.19" y="-694.4" font-family="Times Roman,serif" font-size="14.00">10g2</text>
<polyline fill="none" stroke="black" points="461.19,-685 513.19,-685 "/>
<text text-anchor="middle" x="487.19" y="-668.4" font-family="Times Roman,serif" font-size="14.00">1g1</text>
<polyline fill="none" stroke="black" points="461.19,-659 513.19,-659 "/>
<text text-anchor="middle" x="487.19" y="-642.4" font-family="Times Roman,serif" font-size="14.00">1g2</text>
<polyline fill="none" stroke="black" points="461.19,-633 513.19,-633 "/>
<text text-anchor="middle" x="487.19" y="-616.4" font-family="Times Roman,serif" font-size="14.00">ipmi</text>
</g>
<!-- slow -->
<g id="node14" class="node"><title>slow</title>
<polygon fill="none" stroke="black" points="200.19,-531 200.19,-567 413.19,-567 413.19,-531 200.19,-531"/>
<text text-anchor="middle" x="253.69" y="-545.4" font-family="Times Roman,serif" font-size="14.00">4x 2960g tor</text>
<polyline fill="none" stroke="black" points="307.19,-531 307.19,-567 "/>
<text text-anchor="middle" x="332.19" y="-545.4" font-family="Times Roman,serif" font-size="14.00">front</text>
<polyline fill="none" stroke="black" points="357.19,-531 357.19,-567 "/>
<text text-anchor="middle" x="385.19" y="-545.4" font-family="Times Roman,serif" font-size="14.00">mgmt</text>
</g>
<!-- plana&#45;&gt;slow -->
<g id="edge36" class="edge"><title>plana:1g1&#45;&gt;slow:front</title>
<path fill="none" stroke="green" d="M514.69,-672C543.805,-672 532.124,-629.036 513.69,-606.5 500.658,-590.567 332.69,-587.584 332.69,-567"/>
</g>
<!-- ipmi -->
<g id="node16" class="node"><title>ipmi</title>
<polygon fill="none" stroke="black" points="430.69,-531 430.69,-567 602.69,-567 602.69,-531 430.69,-531"/>
<text text-anchor="middle" x="488.69" y="-545.4" font-family="Times Roman,serif" font-size="14.00">4x 2960g ipmi</text>
<polyline fill="none" stroke="black" points="546.69,-531 546.69,-567 "/>
<text text-anchor="middle" x="574.69" y="-545.4" font-family="Times Roman,serif" font-size="14.00">mgmt</text>
</g>
<!-- plana&#45;&gt;ipmi -->
<g id="edge17" class="edge"><title>plana:ipmi&#45;&gt;ipmi:sepia_ipmi</title>
<path fill="none" stroke="blue" d="M487.69,-607C487.69,-589.217 488.69,-584.783 488.69,-567"/>
</g>
<!-- burnupi -->
<g id="node2" class="node"><title>burnupi</title>
<polygon fill="none" stroke="black" points="206.19,-607 206.19,-737 359.19,-737 359.19,-607 206.19,-607"/>
<text text-anchor="middle" x="256.69" y="-668.4" font-family="Times Roman,serif" font-size="14.00">64x burnupi</text>
<polyline fill="none" stroke="black" points="307.19,-607 307.19,-737 "/>
<text text-anchor="middle" x="333.19" y="-720.4" font-family="Times Roman,serif" font-size="14.00">10g1</text>
<polyline fill="none" stroke="black" points="307.19,-711 359.19,-711 "/>
<text text-anchor="middle" x="333.19" y="-694.4" font-family="Times Roman,serif" font-size="14.00">10g2</text>
<polyline fill="none" stroke="black" points="307.19,-685 359.19,-685 "/>
<text text-anchor="middle" x="333.19" y="-668.4" font-family="Times Roman,serif" font-size="14.00">1g1</text>
<polyline fill="none" stroke="black" points="307.19,-659 359.19,-659 "/>
<text text-anchor="middle" x="333.19" y="-642.4" font-family="Times Roman,serif" font-size="14.00">1g2</text>
<polyline fill="none" stroke="black" points="307.19,-633 359.19,-633 "/>
<text text-anchor="middle" x="333.19" y="-616.4" font-family="Times Roman,serif" font-size="14.00">ipmi</text>
</g>
<!-- burnupi&#45;&gt;slow -->
<g id="edge38" class="edge"><title>burnupi:1g1&#45;&gt;slow:front</title>
<path fill="none" stroke="green" d="M360.69,-672C367.969,-672 361.893,-613.437 359.69,-606.5 353.255,-586.232 332.69,-588.265 332.69,-567"/>
</g>
<!-- burnupi&#45;&gt;ipmi -->
<g id="edge19" class="edge"><title>burnupi:ipmi&#45;&gt;ipmi:sepia_ipmi</title>
<path fill="none" stroke="blue" d="M359.69,-620C366.857,-620 362.867,-611.3 367.69,-606 387.443,-584.296 402.785,-590.446 421.69,-568 427.71,-560.853 421.346,-549 430.69,-549"/>
</g>
<!-- vercoi -->
<g id="node3" class="node"><title>vercoi</title>
<polygon fill="none" stroke="black" points="225.69,-345 225.69,-475 357.69,-475 357.69,-345 225.69,-345"/>
<text text-anchor="middle" x="265.69" y="-406.4" font-family="Times Roman,serif" font-size="14.00">8x vercoi</text>
<polyline fill="none" stroke="black" points="305.69,-345 305.69,-475 "/>
<text text-anchor="middle" x="331.69" y="-458.4" font-family="Times Roman,serif" font-size="14.00">10g1</text>
<polyline fill="none" stroke="black" points="305.69,-449 357.69,-449 "/>
<text text-anchor="middle" x="331.69" y="-432.4" font-family="Times Roman,serif" font-size="14.00">10g2</text>
<polyline fill="none" stroke="black" points="305.69,-423 357.69,-423 "/>
<text text-anchor="middle" x="331.69" y="-406.4" font-family="Times Roman,serif" font-size="14.00">1g1</text>
<polyline fill="none" stroke="black" points="305.69,-397 357.69,-397 "/>
<text text-anchor="middle" x="331.69" y="-380.4" font-family="Times Roman,serif" font-size="14.00">1g2</text>
<polyline fill="none" stroke="black" points="305.69,-371 357.69,-371 "/>
<text text-anchor="middle" x="331.69" y="-354.4" font-family="Times Roman,serif" font-size="14.00">ipmi</text>
</g>
<!-- world -->
<g id="node9" class="node"><title>world</title>
<polygon fill="none" stroke="black" points="87.1904,-235 87.1904,-271 680.19,-271 680.19,-235 87.1904,-235"/>
<text text-anchor="middle" x="135.19" y="-249.4" font-family="Times Roman,serif" font-size="14.00">4948 world</text>
<polyline fill="none" stroke="black" points="183.19,-235 183.19,-271 "/>
<text text-anchor="middle" x="211.19" y="-249.4" font-family="Times Roman,serif" font-size="14.00">public</text>
<polyline fill="none" stroke="black" points="239.19,-235 239.19,-271 "/>
<text text-anchor="middle" x="264.19" y="-249.4" font-family="Times Roman,serif" font-size="14.00">front</text>
<polyline fill="none" stroke="black" points="289.19,-235 289.19,-271 "/>
<text text-anchor="middle" x="313.19" y="-249.4" font-family="Times Roman,serif" font-size="14.00">back</text>
<polyline fill="none" stroke="black" points="337.19,-235 337.19,-271 "/>
<text text-anchor="middle" x="379.69" y="-249.4" font-family="Times Roman,serif" font-size="14.00">sepia ipmi</text>
<polyline fill="none" stroke="black" points="422.19,-235 422.19,-271 "/>
<text text-anchor="middle" x="453.19" y="-249.4" font-family="Times Roman,serif" font-size="14.00">rescue</text>
<polyline fill="none" stroke="black" points="484.19,-235 484.19,-271 "/>
<text text-anchor="middle" x="554.19" y="-249.4" font-family="Times Roman,serif" font-size="14.00">switch mgmt vlan</text>
<polyline fill="none" stroke="black" points="624.19,-235 624.19,-271 "/>
<text text-anchor="middle" x="652.19" y="-249.4" font-family="Times Roman,serif" font-size="14.00">mgmt</text>
</g>
<!-- vercoi&#45;&gt;world -->
<g id="edge33" class="edge"><title>vercoi:1g2&#45;&gt;world:switch_mgmt</title>
<path fill="none" stroke="red" d="M358.69,-384C423.993,-384 442.012,-365.923 493.69,-326 509.731,-313.608 506.399,-303.306 521.69,-290 534.458,-278.891 554.69,-287.924 554.69,-271"/>
</g>
<!-- vercoi&#45;&gt;world -->
<g id="edge56" class="edge"><title>vercoi:1g2&#45;&gt;world:rescue</title>
<path fill="none" stroke="brown" d="M358.69,-384C400.527,-384 336.485,-321.784 363.69,-290 390.275,-258.942 453.69,-311.882 453.69,-271"/>
<text text-anchor="middle" x="426.69" y="-313.4" font-family="Times Roman,serif" font-size="14.00">hypervisor access,</text>
<text text-anchor="middle" x="426.69" y="-295.4" font-family="Times Roman,serif" font-size="14.00">hypervisor ipmi</text>
</g>
<!-- vercoi&#45;&gt;world -->
<g id="edge21" class="edge"><title>vercoi:ipmi&#45;&gt;world</title>
<path fill="none" stroke="blue" d="M331.69,-345C331.69,-319.776 333.07,-311.84 345.69,-290 349.653,-283.144 355.241,-276.718 360.916,-271.208"/>
</g>
<!-- vercoi&#45;&gt;slow -->
<g id="edge40" class="edge"><title>vercoi:1g1&#45;&gt;slow:front</title>
<path fill="none" stroke="green" d="M357.69,-410C386.802,-410 364.116,-447.107 357.69,-475.5 351.767,-501.675 331.69,-503.163 331.69,-530"/>
</g>
<!-- gw -->
<g id="node4" class="node"><title>gw</title>
<polygon fill="none" stroke="black" points="107.69,-101 107.69,-137 161.69,-137 161.69,-101 107.69,-101"/>
<text text-anchor="middle" x="134.69" y="-115.4" font-family="Times Roman,serif" font-size="14.00">gw</text>
</g>
<!-- gw&#45;&gt;world -->
<g id="edge51" class="edge"><title>gw&#45;&gt;world:trunk</title>
<path fill="none" stroke="black" stroke-dasharray="1,5" d="M107.539,-123.271C76.9913,-129.686 28.7645,-145.028 6.6904,-180 -18.8265,-220.427 37.8842,-253 85.6904,-253"/>
<text text-anchor="middle" x="68.6904" y="-203.4" font-family="Times Roman,serif" font-size="14.00">serial console</text>
<text text-anchor="middle" x="68.6904" y="-185.4" font-family="Times Roman,serif" font-size="14.00">to manage switch</text>
</g>
<!-- force10_tor -->
<g id="node5" class="node"><title>force10_tor</title>
<polygon fill="none" stroke="black" points="162.19,-777 162.19,-813 435.19,-813 435.19,-777 162.19,-777"/>
<text text-anchor="middle" x="246.69" y="-791.4" font-family="Times Roman,serif" font-size="14.00">4x force10 top&#45;of&#45;rack</text>
<polyline fill="none" stroke="black" points="331.19,-777 331.19,-813 "/>
<text text-anchor="middle" x="355.19" y="-791.4" font-family="Times Roman,serif" font-size="14.00">back</text>
<polyline fill="none" stroke="black" points="379.19,-777 379.19,-813 "/>
<text text-anchor="middle" x="407.19" y="-791.4" font-family="Times Roman,serif" font-size="14.00">mgmt</text>
</g>
<!-- force10_tor&#45;&gt;plana -->
<g id="edge7" class="edge"><title>force10_tor:back&#45;&gt;plana:10g1</title>
<path fill="none" stroke="#cdcd00" d="M355.69,-777C355.69,-720.488 467.871,-786.273 485.399,-748.87"/>
<polygon fill="#cdcd00" stroke="#cdcd00" points="485.416,-748.783 482.626,-742.133 487.69,-737 490.481,-743.649 485.416,-748.783"/>
</g>
<!-- force10_tor&#45;&gt;burnupi -->
<g id="edge9" class="edge"><title>force10_tor:back&#45;&gt;burnupi:10g1</title>
<path fill="none" stroke="#cdcd00" d="M355.69,-777C355.69,-761.625 343.056,-758.233 336.937,-748.662"/>
<polygon fill="#cdcd00" stroke="#cdcd00" points="336.908,-748.561 331.446,-743.853 333.69,-737 339.153,-741.708 336.908,-748.561"/>
</g>
<!-- force10_tor&#45;&gt;vercoi -->
<g id="edge11" class="edge"><title>force10_tor:tor&#45;&gt;vercoi:10g1</title>
<path fill="none" stroke="black" stroke-width="2" d="M157.791,-785.182C150.547,-747.297 138.566,-608.82 191.69,-530 210.147,-502.616 225.985,-506.156 256.69,-494 284.791,-482.875 321.432,-503.191 329.894,-484.929"/>
<polygon fill="black" stroke="black" points="157.858,-785.409 156.375,-796.275 159.274,-790.205 160.69,-795 160.69,-795 160.69,-795 159.274,-790.205 165.006,-793.725 157.858,-785.409 157.858,-785.409"/>
<polygon fill="black" stroke="black" points="329.91,-484.84 336.118,-475.801 330.8,-479.92 331.69,-475 331.69,-475 331.69,-475 330.8,-479.92 327.262,-474.199 329.91,-484.84 329.91,-484.84"/>
</g>
<!-- force10_tor&#45;&gt;world -->
<g id="edge25" class="edge"><title>force10_tor:mgmt&#45;&gt;world:switch_mgmt</title>
<path fill="none" stroke="red" d="M436.69,-795C538.782,-795 630.69,-774.092 630.69,-672 630.69,-672 630.69,-672 630.69,-410 630.69,-350.956 607.729,-338.245 573.69,-290 566.806,-280.242 554.69,-282.942 554.69,-271"/>
</g>
<!-- force10_interconnect -->
<g id="node6" class="node"><title>force10_interconnect</title>
<polygon fill="none" stroke="black" points="184.19,-853 184.19,-889 365.19,-889 365.19,-853 184.19,-853"/>
<text text-anchor="middle" x="246.69" y="-867.4" font-family="Times Roman,serif" font-size="14.00">2x force10 aggr</text>
<polyline fill="none" stroke="black" points="309.19,-853 309.19,-889 "/>
<text text-anchor="middle" x="337.19" y="-867.4" font-family="Times Roman,serif" font-size="14.00">mgmt</text>
</g>
<!-- force10_interconnect&#45;&gt;force10_tor -->
<g id="edge2" class="edge"><title>force10_interconnect:ic&#45;&gt;force10_tor:tor</title>
<path fill="none" stroke="black" stroke-width="2" d="M246.69,-842.968C246.69,-835.545 246.69,-830.486 246.69,-823.07"/>
<polygon fill="black" stroke="black" points="246.69,-843 242.19,-853 246.69,-848 246.69,-853 246.69,-853 246.69,-853 246.69,-848 251.19,-853 246.69,-843 246.69,-843"/>
<polygon fill="black" stroke="black" points="246.69,-823 251.19,-813 246.69,-818 246.69,-813 246.69,-813 246.69,-813 246.69,-818 242.19,-813 246.69,-823 246.69,-823"/>
</g>
<!-- force10_interconnect&#45;&gt;world -->
<g id="edge4" class="edge"><title>force10_interconnect:ic&#45;&gt;world:trunk</title>
<path fill="none" stroke="black" stroke-width="2" d="M172.678,-870.15C141.358,-864.491 134.69,-831.361 134.69,-795 134.69,-795 134.69,-795 134.69,-410 134.69,-351.721 134.69,-334.676 134.69,-281.068"/>
<polygon fill="black" stroke="black" points="172.726,-870.154 182.31,-875.484 177.708,-870.577 182.69,-871 182.69,-871 182.69,-871 177.708,-870.577 183.071,-866.516 172.726,-870.154 172.726,-870.154"/>
<polygon fill="black" stroke="black" points="134.69,-281 139.19,-271 134.69,-276 134.69,-271 134.69,-271 134.69,-271 134.69,-276 130.19,-271 134.69,-281 134.69,-281"/>
</g>
<!-- force10_interconnect&#45;&gt;world -->
<g id="edge27" class="edge"><title>force10_interconnect:mgmt&#45;&gt;world:switch_mgmt</title>
<path fill="none" stroke="red" d="M366.69,-871C435.894,-871 668.69,-864.204 668.69,-795 668.69,-795 668.69,-795 668.69,-410 668.69,-348.479 649.118,-326.631 599.69,-290 582.249,-277.074 554.69,-292.71 554.69,-271"/>
</g>
<!-- world&#45;&gt;gw -->
<g id="edge45" class="edge"><title>world:trunk&#45;&gt;gw</title>
<path fill="none" stroke="black" stroke-width="2" d="M134.69,-224.707C134.69,-197.389 134.69,-167.989 134.69,-147.146"/>
<polygon fill="black" stroke="black" points="134.69,-225 130.19,-235 134.69,-230 134.69,-235 134.69,-235 134.69,-235 134.69,-230 139.19,-235 134.69,-225 134.69,-225"/>
<polygon fill="black" stroke="black" points="134.69,-147.083 139.19,-137.083 134.69,-142.083 134.69,-137.083 134.69,-137.083 134.69,-137.083 134.69,-142.083 130.19,-137.083 134.69,-147.083 134.69,-147.083"/>
</g>
<!-- world&#45;&gt;gw -->
<g id="edge47" class="edge"><title>world:pub&#45;&gt;gw</title>
<path fill="none" stroke="#ffa500" d="M210.69,-235C210.69,-201.1 186.209,-200.395 167.69,-172 160.23,-160.56 152.119,-147.543 145.805,-137.271"/>
</g>
<!-- some_router -->
<g id="node18" class="node"><title>some_router</title>
<polygon fill="none" stroke="black" points="179.69,-101 179.69,-137 283.69,-137 283.69,-101 179.69,-101"/>
<text text-anchor="middle" x="231.69" y="-115.4" font-family="Times Roman,serif" font-size="14.00">some_router</text>
</g>
<!-- world&#45;&gt;some_router -->
<g id="edge49" class="edge"><title>world:pub&#45;&gt;some_router</title>
<path fill="none" stroke="#ffa500" d="M210.69,-235C210.69,-200.003 220.06,-160.002 226.282,-137.298"/>
</g>
<!-- sepia_ipmi -->
<g id="node24" class="node"><title>sepia_ipmi</title>
<polygon fill="none" stroke="black" points="339.69,-101 339.69,-137 427.69,-137 427.69,-101 339.69,-101"/>
<text text-anchor="middle" x="383.69" y="-115.4" font-family="Times Roman,serif" font-size="14.00">sepia_ipmi</text>
</g>
<!-- world&#45;&gt;sepia_ipmi -->
<g id="edge22" class="edge"><title>world&#45;&gt;sepia_ipmi</title>
<path fill="none" stroke="blue" d="M383.69,-234.928C383.69,-209.353 383.69,-162.865 383.69,-137.213"/>
</g>
<!-- slow&#45;&gt;vercoi -->
<g id="edge42" class="edge"><title>slow:tor&#45;&gt;vercoi:10g2</title>
<path fill="none" stroke="black" stroke-width="2" d="M254.187,-519.892C260.995,-500.3 289.785,-506.532 314.69,-494 333.275,-484.649 346.25,-492.877 357.69,-475.5 364.78,-464.732 370.925,-448.477 366.736,-440.601"/>
<polygon fill="black" stroke="black" points="254.155,-520.108 248.239,-529.341 253.423,-525.054 252.69,-530 252.69,-530 252.69,-530 253.423,-525.054 257.142,-530.659 254.155,-520.108 254.155,-520.108"/>
<polygon fill="black" stroke="black" points="366.604,-440.534 359.731,-431.989 362.147,-438.267 357.69,-436 357.69,-436 357.69,-436 362.147,-438.267 355.65,-440.011 366.604,-440.534 366.604,-440.534"/>
<text text-anchor="middle" x="323.69" y="-499.4" font-family="Times Roman,serif" font-size="14.00">1g</text>
</g>
<!-- slow&#45;&gt;world -->
<g id="edge29" class="edge"><title>slow:mgmt&#45;&gt;world:switch_mgmt</title>
<path fill="none" stroke="red" d="M414.69,-549C423.69,-549 418.073,-538.24 421.69,-530 473.709,-411.515 554.69,-400.401 554.69,-271"/>
</g>
<!-- slow&#45;&gt;world -->
<g id="edge13" class="edge"><title>slow:tor&#45;&gt;world:trunk</title>
<path fill="none" stroke="black" stroke-width="2" d="M188.727,-546.681C143.872,-523.929 170.74,-340.337 148.69,-290 146.389,-284.746 142.418,-282.693 139.291,-280.196"/>
<polygon fill="black" stroke="black" points="188.951,-546.733 197.67,-553.383 193.821,-547.867 198.69,-549 198.69,-549 198.69,-549 193.821,-547.867 199.71,-544.617 188.951,-546.733 188.951,-546.733"/>
<polygon fill="black" stroke="black" points="139.165,-279.943 138.715,-268.987 136.928,-275.472 134.69,-271 134.69,-271 134.69,-271 136.928,-275.472 130.666,-273.013 139.165,-279.943 139.165,-279.943"/>
</g>
<!-- ipmi&#45;&gt;world -->
<g id="edge31" class="edge"><title>ipmi:mgmt&#45;&gt;world:switch_mgmt</title>
<path fill="none" stroke="red" d="M574.69,-531C574.69,-423.623 569.853,-396.686 557.69,-290 556.722,-281.506 554.69,-279.549 554.69,-271"/>
</g>
<!-- office -->
<g id="node19" class="node"><title>office</title>
<polygon fill="none" stroke="black" points="277.516,-46.0224 231.69,-61.7248 185.865,-46.0224 185.908,-20.6152 277.473,-20.6152 277.516,-46.0224"/>
<text text-anchor="middle" x="231.69" y="-35.4" font-family="Times Roman,serif" font-size="14.00">office</text>
</g>
<!-- some_router&#45;&gt;office -->
<g id="edge53" class="edge"><title>some_router&#45;&gt;office</title>
<path fill="none" stroke="black" d="M231.69,-100.847C231.69,-89.2295 231.69,-74.0657 231.69,-61.6607"/>
</g>
</g>
</svg>
