<?xml version="1.0" encoding="UTF-8" standalone="no"?>
<!DOCTYPE svg PUBLIC "-//W3C//DTD SVG 1.1//EN"
 "http://www.w3.org/Graphics/SVG/1.1/DTD/svg11.dtd">
<!-- Generated by graphviz version 2.38.0 (20140413.2041)
 -->
<!-- Title: senta&#45;interfaces Pages: 1 -->
<svg width="341pt" height="288pt"
 viewBox="0.00 0.00 341.00 288.00" xmlns="http://www.w3.org/2000/svg" xmlns:xlink="http://www.w3.org/1999/xlink">
<g id="graph0" class="graph" transform="scale(1 1) rotate(0) translate(4 284)">
<title>senta&#45;interfaces</title>
<polygon fill="white" stroke="none" points="-4,4 -4,-284 337,-284 337,4 -4,4"/>
<g id="clust1" class="cluster"><title>cluster_phys</title>
</g>
<g id="clust2" class="cluster"><title>cluster_phys_1g</title>
</g>
<g id="clust4" class="cluster"><title>cluster_vlan</title>
</g>
<g id="clust5" class="cluster"><title>cluster_bridge</title>
</g>
<!-- nic_1g1 -->
<g id="node1" class="node"><title>nic_1g1</title>
<polygon fill="none" stroke="black" points="58,-219.5 58,-255.5 112,-255.5 112,-219.5 58,-219.5"/>
<text text-anchor="middle" x="85" y="-233.8" font-family="Times,serif" font-size="14.00">1g1</text>
</g>
<!-- nic_1g2 -->
<g id="node2" class="node"><title>nic_1g2</title>
<polygon fill="none" stroke="black" points="130,-219.5 130,-255.5 184,-255.5 184,-219.5 130,-219.5"/>
<text text-anchor="middle" x="157" y="-233.8" font-family="Times,serif" font-size="14.00">1g2</text>
</g>
<!-- nic_1g1&#45;&gt;nic_1g2 -->
<!-- br_front -->
<g id="node6" class="node"><title>br_front</title>
<polygon fill="none" stroke="black" points="16.5,-73.5 16.5,-109.5 75.5,-109.5 75.5,-73.5 16.5,-73.5"/>
<text text-anchor="middle" x="46" y="-87.8" font-family="Times,serif" font-size="14.00">br&#45;front</text>
</g>
<!-- nic_1g1&#45;&gt;br_front -->
<g id="edge2" class="edge"><title>nic_1g1&#45;&gt;br_front</title>
<path fill="none" stroke="black" d="M75.249,-219.255C70.9199,-210.942 66.1111,-200.691 63,-191 54.0886,-163.241 49.5521,-129.496 47.4863,-109.575"/>
</g>
<!-- vlan_back -->
<g id="node3" class="node"><title>vlan_back</title>
<polygon fill="none" stroke="black" points="247,-146.5 247,-182.5 317,-182.5 317,-146.5 247,-146.5"/>
<text text-anchor="middle" x="282" y="-160.8" font-family="Times,serif" font-size="14.00">vlan&#45;back</text>
</g>
<!-- nic_1g2&#45;&gt;vlan_back -->
<g id="edge3" class="edge"><title>nic_1g2&#45;&gt;vlan_back</title>
<path fill="none" stroke="black" d="M184.051,-221.424C199.818,-212.607 220.068,-201.232 238,-191 242.754,-188.287 247.787,-185.393 252.684,-182.563"/>
</g>
<!-- vlan_ipmi -->
<g id="node4" class="node"><title>vlan_ipmi</title>
<polygon fill="none" stroke="black" points="159,-146.5 159,-182.5 229,-182.5 229,-146.5 159,-146.5"/>
<text text-anchor="middle" x="194" y="-160.8" font-family="Times,serif" font-size="14.00">vlan&#45;ipmi</text>
</g>
<!-- nic_1g2&#45;&gt;vlan_ipmi -->
<g id="edge4" class="edge"><title>nic_1g2&#45;&gt;vlan_ipmi</title>
<path fill="none" stroke="black" d="M165.957,-219.313C171.774,-208.15 179.325,-193.66 185.126,-182.529"/>
</g>
<!-- vlan_pub -->
<g id="node5" class="node"><title>vlan_pub</title>
<polygon fill="none" stroke="black" points="75.5,-146.5 75.5,-182.5 140.5,-182.5 140.5,-146.5 75.5,-146.5"/>
<text text-anchor="middle" x="108" y="-160.8" font-family="Times,serif" font-size="14.00">vlan&#45;pub</text>
</g>
<!-- nic_1g2&#45;&gt;vlan_pub -->
<g id="edge5" class="edge"><title>nic_1g2&#45;&gt;vlan_pub</title>
<path fill="none" stroke="black" d="M145.138,-219.313C137.434,-208.15 127.434,-193.66 119.752,-182.529"/>
</g>
<!-- br_back -->
<g id="node7" class="node"><title>br_back</title>
<polygon fill="none" stroke="black" points="242,-73.5 242,-109.5 300,-109.5 300,-73.5 242,-73.5"/>
<text text-anchor="middle" x="271" y="-87.8" font-family="Times,serif" font-size="14.00">br&#45;back</text>
</g>
<!-- vlan_back&#45;&gt;br_back -->
<g id="edge6" class="edge"><title>vlan_back&#45;&gt;br_back</title>
<path fill="none" stroke="black" d="M279.337,-146.313C277.608,-135.15 275.363,-120.66 273.638,-109.529"/>
</g>
<!-- br_ipmi -->
<g id="node8" class="node"><title>br_ipmi</title>
<polygon fill="none" stroke="black" points="166,-73.5 166,-109.5 224,-109.5 224,-73.5 166,-73.5"/>
<text text-anchor="middle" x="195" y="-87.8" font-family="Times,serif" font-size="14.00">br&#45;ipmi</text>
</g>
<!-- vlan_ipmi&#45;&gt;br_ipmi -->
<g id="edge7" class="edge"><title>vlan_ipmi&#45;&gt;br_ipmi</title>
<path fill="none" stroke="black" d="M194.242,-146.313C194.399,-135.15 194.603,-120.66 194.76,-109.529"/>
</g>
<!-- br_pub -->
<g id="node9" class="node"><title>br_pub</title>
<polygon fill="none" stroke="black" points="94,-73.5 94,-109.5 148,-109.5 148,-73.5 94,-73.5"/>
<text text-anchor="middle" x="121" y="-87.8" font-family="Times,serif" font-size="14.00">br&#45;pub</text>
</g>
<!-- vlan_pub&#45;&gt;br_pub -->
<g id="edge8" class="edge"><title>vlan_pub&#45;&gt;br_pub</title>
<path fill="none" stroke="black" d="M111.147,-146.313C113.191,-135.15 115.844,-120.66 117.882,-109.529"/>
</g>
<!-- vms -->
<g id="node10" class="node"><title>vms</title>
<polygon fill="none" stroke="black" points="131,-0.5 131,-36.5 185,-36.5 185,-0.5 131,-0.5"/>
<text text-anchor="middle" x="158" y="-14.8" font-family="Times,serif" font-size="14.00">VMs</text>
</g>
<!-- br_front&#45;&gt;vms -->
<g id="edge9" class="edge"><title>br_front&#45;&gt;vms</title>
<path fill="none" stroke="black" d="M71.9622,-73.4127C76.3052,-70.5865 80.7725,-67.6991 85,-65 97.0364,-57.3152 110.266,-49.0229 122.119,-41.6493"/>
<polygon fill="black" stroke="black" points="122.376,-41.4898 133.245,-40.038 126.623,-38.8524 130.871,-36.2149 130.871,-36.2149 130.871,-36.2149 126.623,-38.8524 128.498,-32.3919 122.376,-41.4898 122.376,-41.4898"/>
</g>
<!-- br_back&#45;&gt;vms -->
<g id="edge10" class="edge"><title>br_back&#45;&gt;vms</title>
<path fill="none" stroke="black" d="M245.76,-73.3291C241.522,-70.513 237.152,-67.6506 233,-65 220.398,-56.9549 206.432,-48.3889 194.001,-40.8846"/>
<polygon fill="black" stroke="black" points="193.832,-40.7834 187.581,-31.774 189.547,-38.207 185.262,-35.6307 185.262,-35.6307 185.262,-35.6307 189.547,-38.207 182.943,-39.4873 193.832,-40.7834 193.832,-40.7834"/>
</g>
<!-- br_ipmi&#45;&gt;vms -->
<g id="edge11" class="edge"><title>br_ipmi&#45;&gt;vms</title>
<path fill="none" stroke="black" d="M186.043,-73.3129C181.68,-64.9407 176.342,-54.6971 171.499,-45.4026"/>
<polygon fill="black" stroke="black" points="171.496,-45.3969 170.865,-34.4492 169.185,-40.9629 166.874,-36.5288 166.874,-36.5288 166.874,-36.5288 169.185,-40.9629 162.884,-38.6085 171.496,-45.3969 171.496,-45.3969"/>
</g>
<!-- br_pub&#45;&gt;vms -->
<g id="edge12" class="edge"><title>br_pub&#45;&gt;vms</title>
<path fill="none" stroke="black" d="M129.957,-73.3129C134.32,-64.9407 139.658,-54.6971 144.501,-45.4026"/>
<polygon fill="black" stroke="black" points="144.504,-45.3969 153.116,-38.6085 146.815,-40.9629 149.126,-36.5288 149.126,-36.5288 149.126,-36.5288 146.815,-40.9629 145.135,-34.4492 144.504,-45.3969 144.504,-45.3969"/>
</g>
</g>
</svg>
