<?xml version="1.0" encoding="UTF-8" standalone="no"?>
<!DOCTYPE svg PUBLIC "-//W3C//DTD SVG 1.1//EN"
 "http://www.w3.org/Graphics/SVG/1.1/DTD/svg11.dtd">
<!-- Generated by graphviz version 2.26.3 (20100126.1600)
 -->
<!-- Title: vercoi&#45;interfaces Pages: 1 -->
<svg width="426pt" height="292pt"
 viewBox="0.00 0.00 426.00 292.00" xmlns="http://www.w3.org/2000/svg" xmlns:xlink="http://www.w3.org/1999/xlink">
<g id="graph1" class="graph" transform="scale(1 1) rotate(0) translate(4 288)">
<title>vercoi&#45;interfaces</title>
<polygon fill="white" stroke="white" points="-4,5 -4,-288 423,-288 423,5 -4,5"/>
<g id="graph2" class="cluster"><title>cluster_phys</title>
</g>
<g id="graph3" class="cluster"><title>cluster_phys_1g</title>
</g>
<g id="graph4" class="cluster"><title>cluster_phys_10g</title>
</g>
<g id="graph6" class="cluster"><title>cluster_vlan</title>
</g>
<g id="graph7" class="cluster"><title>cluster_bridge</title>
</g>
<!-- nic_1g1 -->
<g id="node3" class="node"><title>nic_1g1</title>
<polygon fill="none" stroke="black" points="24,-223 24,-259 78,-259 78,-223 24,-223"/>
<text text-anchor="middle" x="51" y="-237.4" font-family="Times Roman,serif" font-size="14.00">1g1</text>
</g>
<!-- nic_1g2 -->
<g id="node4" class="node"><title>nic_1g2</title>
<polygon fill="none" stroke="black" points="96,-223 96,-259 150,-259 150,-223 96,-223"/>
<text text-anchor="middle" x="123" y="-237.4" font-family="Times Roman,serif" font-size="14.00">1g2</text>
</g>
<!-- nic_1g1&#45;&gt;nic_1g2 -->
<!-- br_front -->
<g id="node16" class="node"><title>br_front</title>
<polygon fill="none" stroke="black" points="57.5,-75 57.5,-111 126.5,-111 126.5,-75 57.5,-75"/>
<text text-anchor="middle" x="92" y="-89.4" font-family="Times Roman,serif" font-size="14.00">br&#45;front</text>
</g>
<!-- nic_1g1&#45;&gt;br_front -->
<g id="edge12" class="edge"><title>nic_1g1&#45;&gt;br_front</title>
<path fill="none" stroke="black" d="M56.0274,-222.852C63.8964,-194.447 79.0372,-139.792 86.9315,-111.296"/>
</g>
<!-- nic_10g1 -->
<g id="node6" class="node"><title>nic_10g1</title>
<polygon fill="none" stroke="black" points="174,-223 174,-259 228,-259 228,-223 174,-223"/>
<text text-anchor="middle" x="201" y="-237.4" font-family="Times Roman,serif" font-size="14.00">10g1</text>
</g>
<!-- nic_10g2 -->
<g id="node7" class="node"><title>nic_10g2</title>
<polygon fill="none" stroke="black" points="246,-223 246,-259 300,-259 300,-223 246,-223"/>
<text text-anchor="middle" x="273" y="-237.4" font-family="Times Roman,serif" font-size="14.00">10g2</text>
</g>
<!-- nic_10g1&#45;&gt;nic_10g2 -->
<!-- vlan_back -->
<g id="node12" class="node"><title>vlan_back</title>
<polygon fill="none" stroke="black" points="319.5,-149 319.5,-185 402.5,-185 402.5,-149 319.5,-149"/>
<text text-anchor="middle" x="361" y="-163.4" font-family="Times Roman,serif" font-size="14.00">vlan&#45;back</text>
</g>
<!-- nic_10g2&#45;&gt;vlan_back -->
<g id="edge15" class="edge"><title>nic_10g2&#45;&gt;vlan_back</title>
<path fill="none" stroke="black" d="M294.753,-222.708C308.393,-211.238 325.905,-196.512 339.497,-185.082"/>
</g>
<!-- vlan_ipmi -->
<g id="node13" class="node"><title>vlan_ipmi</title>
<polygon fill="none" stroke="black" points="222,-149 222,-185 302,-185 302,-149 222,-149"/>
<text text-anchor="middle" x="262" y="-163.4" font-family="Times Roman,serif" font-size="14.00">vlan&#45;ipmi</text>
</g>
<!-- nic_10g2&#45;&gt;vlan_ipmi -->
<g id="edge16" class="edge"><title>nic_10g2&#45;&gt;vlan_ipmi</title>
<path fill="none" stroke="black" d="M270.281,-222.708C268.576,-211.238 266.387,-196.512 264.688,-185.082"/>
</g>
<!-- vlan_pub -->
<g id="node14" class="node"><title>vlan_pub</title>
<polygon fill="none" stroke="black" points="127.5,-149 127.5,-185 204.5,-185 204.5,-149 127.5,-149"/>
<text text-anchor="middle" x="166" y="-163.4" font-family="Times Roman,serif" font-size="14.00">vlan&#45;pub</text>
</g>
<!-- nic_10g2&#45;&gt;vlan_pub -->
<g id="edge17" class="edge"><title>nic_10g2&#45;&gt;vlan_pub</title>
<path fill="none" stroke="black" d="M256.386,-222.752C250.591,-216.978 243.823,-210.845 237,-206 227.277,-199.095 223.508,-199.639 213,-194 207.776,-191.197 202.277,-188.138 196.954,-185.119"/>
</g>
<!-- br_back -->
<g id="node17" class="node"><title>br_back</title>
<polygon fill="none" stroke="black" points="303.5,-75 303.5,-111 370.5,-111 370.5,-75 303.5,-75"/>
<text text-anchor="middle" x="337" y="-89.4" font-family="Times Roman,serif" font-size="14.00">br&#45;back</text>
</g>
<!-- vlan_back&#45;&gt;br_back -->
<g id="edge19" class="edge"><title>vlan_back&#45;&gt;br_back</title>
<path fill="none" stroke="black" d="M355.067,-148.708C351.347,-137.238 346.571,-122.512 342.864,-111.082"/>
</g>
<!-- br_ipmi -->
<g id="node18" class="node"><title>br_ipmi</title>
<polygon fill="none" stroke="black" points="222,-75 222,-111 286,-111 286,-75 222,-75"/>
<text text-anchor="middle" x="254" y="-89.4" font-family="Times Roman,serif" font-size="14.00">br&#45;ipmi</text>
</g>
<!-- vlan_ipmi&#45;&gt;br_ipmi -->
<g id="edge21" class="edge"><title>vlan_ipmi&#45;&gt;br_ipmi</title>
<path fill="none" stroke="black" d="M260.022,-148.708C258.782,-137.238 257.19,-122.512 255.955,-111.082"/>
</g>
<!-- br_pub -->
<g id="node19" class="node"><title>br_pub</title>
<polygon fill="none" stroke="black" points="143.5,-75 143.5,-111 204.5,-111 204.5,-75 143.5,-75"/>
<text text-anchor="middle" x="174" y="-89.4" font-family="Times Roman,serif" font-size="14.00">br&#45;pub</text>
</g>
<!-- vlan_pub&#45;&gt;br_pub -->
<g id="edge23" class="edge"><title>vlan_pub&#45;&gt;br_pub</title>
<path fill="none" stroke="black" d="M167.978,-148.708C169.218,-137.238 170.81,-122.512 172.045,-111.082"/>
</g>
<!-- vms -->
<g id="node26" class="node"><title>vms</title>
<polygon fill="none" stroke="black" points="187,-1 187,-37 241,-37 241,-1 187,-1"/>
<text text-anchor="middle" x="214" y="-15.4" font-family="Times Roman,serif" font-size="14.00">VMs</text>
</g>
<!-- br_front&#45;&gt;vms -->
<g id="edge26" class="edge"><title>br_front&#45;&gt;vms</title>
<path fill="none" stroke="black" d="M120.622,-74.8949C125.41,-71.904 130.337,-68.8505 135,-66 148.94,-57.4786 164.364,-48.2563 177.857,-40.2565"/>
<polygon fill="black" stroke="black" points="178.241,-40.0294 189.139,-38.81 182.544,-37.4832 186.847,-34.9371 186.847,-34.9371 186.847,-34.9371 182.544,-37.4832 184.555,-31.0642 178.241,-40.0294 178.241,-40.0294"/>
</g>
<!-- br_back&#45;&gt;vms -->
<g id="edge27" class="edge"><title>br_back&#45;&gt;vms</title>
<path fill="none" stroke="black" d="M309.098,-74.8122C304.414,-71.8312 299.586,-68.8025 295,-66 280.433,-57.0981 264.189,-47.5918 250.095,-39.4745"/>
<polygon fill="black" stroke="black" points="249.856,-39.3375 243.421,-30.4579 245.519,-36.8493 241.182,-34.3611 241.182,-34.3611 241.182,-34.3611 245.519,-36.8493 238.943,-38.2644 249.856,-39.3375 249.856,-39.3375"/>
</g>
<!-- br_ipmi&#45;&gt;vms -->
<g id="edge28" class="edge"><title>br_ipmi&#45;&gt;vms</title>
<path fill="none" stroke="black" d="M244.112,-74.7079C239.462,-66.1051 233.822,-55.6713 228.686,-46.1699"/>
<polygon fill="black" stroke="black" points="228.529,-45.8788 227.733,-34.9419 226.152,-41.4803 223.774,-37.0817 223.774,-37.0817 223.774,-37.0817 226.152,-41.4803 219.815,-39.2216 228.529,-45.8788 228.529,-45.8788"/>
</g>
<!-- br_pub&#45;&gt;vms -->
<g id="edge29" class="edge"><title>br_pub&#45;&gt;vms</title>
<path fill="none" stroke="black" d="M183.888,-74.7079C188.538,-66.1051 194.178,-55.6713 199.314,-46.1699"/>
<polygon fill="black" stroke="black" points="199.471,-45.8788 208.185,-39.2216 201.848,-41.4803 204.226,-37.0817 204.226,-37.0817 204.226,-37.0817 201.848,-41.4803 200.267,-34.9419 199.471,-45.8788 199.471,-45.8788"/>
</g>
</g>
</svg>
