<?xml version="1.0" encoding="UTF-8" standalone="no"?>
<!DOCTYPE svg PUBLIC "-//W3C//DTD SVG 1.1//EN"
 "http://www.w3.org/Graphics/SVG/1.1/DTD/svg11.dtd">
<!-- Generated by graphviz version 2.26.3 (20100126.1600)
 -->
<!-- Title: new&#45;sepia&#45;network Pages: 1 -->
<svg width="600pt" height="898pt"
 viewBox="0.00 0.00 600.00 898.00" xmlns="http://www.w3.org/2000/svg" xmlns:xlink="http://www.w3.org/1999/xlink">
<g id="graph1" class="graph" transform="scale(1 1) rotate(0) translate(4 894)">
<title>new&#45;sepia&#45;network</title>
<polygon fill="white" stroke="white" points="-4,5 -4,-894 597,-894 597,5 -4,5"/>
<g id="graph3" class="cluster"><title>cluster_dh_managed</title>
<polygon fill="none" stroke="#858585" stroke-dasharray="1,5" points="153,-8 153,-172 273,-172 273,-8 153,-8"/>
<text text-anchor="middle" x="213" y="-155.4" font-family="Times Roman,serif" font-size="14.00">DH managed</text>
</g>
<!-- plana -->
<g id="node1" class="node"><title>plana</title>
<polygon fill="none" stroke="black" points="123.5,-607 123.5,-737 260.5,-737 260.5,-607 123.5,-607"/>
<text text-anchor="middle" x="166" y="-668.4" font-family="Times Roman,serif" font-size="14.00">96x plana</text>
<polyline fill="none" stroke="black" points="208.5,-607 208.5,-737 "/>
<text text-anchor="middle" x="234.5" y="-720.4" font-family="Times Roman,serif" font-size="14.00">10g1</text>
<polyline fill="none" stroke="black" points="208.5,-711 260.5,-711 "/>
<text text-anchor="middle" x="234.5" y="-694.4" font-family="Times Roman,serif" font-size="14.00">10g2</text>
<polyline fill="none" stroke="black" points="208.5,-685 260.5,-685 "/>
<text text-anchor="middle" x="234.5" y="-668.4" font-family="Times Roman,serif" font-size="14.00">1g1</text>
<polyline fill="none" stroke="black" points="208.5,-659 260.5,-659 "/>
<text text-anchor="middle" x="234.5" y="-642.4" font-family="Times Roman,serif" font-size="14.00">1g2</text>
<polyline fill="none" stroke="black" points="208.5,-633 260.5,-633 "/>
<text text-anchor="middle" x="234.5" y="-616.4" font-family="Times Roman,serif" font-size="14.00">ipmi</text>
</g>
<!-- slow -->
<g id="node14" class="node"><title>slow</title>
<polygon fill="none" stroke="black" points="107.5,-531 107.5,-567 320.5,-567 320.5,-531 107.5,-531"/>
<text text-anchor="middle" x="161" y="-545.4" font-family="Times Roman,serif" font-size="14.00">4x 2960g tor</text>
<polyline fill="none" stroke="black" points="214.5,-531 214.5,-567 "/>
<text text-anchor="middle" x="239.5" y="-545.4" font-family="Times Roman,serif" font-size="14.00">front</text>
<polyline fill="none" stroke="black" points="264.5,-531 264.5,-567 "/>
<text text-anchor="middle" x="292.5" y="-545.4" font-family="Times Roman,serif" font-size="14.00">mgmt</text>
</g>
<!-- plana&#45;&gt;slow -->
<g id="edge34" class="edge"><title>plana:1g1&#45;&gt;slow:front</title>
<path fill="none" stroke="green" d="M262,-672C269.279,-672 262.815,-613.549 261,-606.5 256.043,-587.245 240,-586.882 240,-567"/>
</g>
<!-- ipmi -->
<g id="node16" class="node"><title>ipmi</title>
<polygon fill="none" stroke="black" points="338,-531 338,-567 510,-567 510,-531 338,-531"/>
<text text-anchor="middle" x="396" y="-545.4" font-family="Times Roman,serif" font-size="14.00">4x 2960g ipmi</text>
<polyline fill="none" stroke="black" points="454,-531 454,-567 "/>
<text text-anchor="middle" x="482" y="-545.4" font-family="Times Roman,serif" font-size="14.00">mgmt</text>
</g>
<!-- plana&#45;&gt;ipmi -->
<g id="edge17" class="edge"><title>plana:ipmi&#45;&gt;ipmi:sepia_ipmi</title>
<path fill="none" stroke="blue" d="M262,-620C268.957,-620 263.691,-610.495 269,-606 314.064,-567.847 396,-626.046 396,-567"/>
</g>
<!-- burnupi -->
<g id="node2" class="node"><title>burnupi</title>
<polygon fill="none" stroke="black" points="277.5,-607 277.5,-737 430.5,-737 430.5,-607 277.5,-607"/>
<text text-anchor="middle" x="328" y="-668.4" font-family="Times Roman,serif" font-size="14.00">64x burnupi</text>
<polyline fill="none" stroke="black" points="378.5,-607 378.5,-737 "/>
<text text-anchor="middle" x="404.5" y="-720.4" font-family="Times Roman,serif" font-size="14.00">10g1</text>
<polyline fill="none" stroke="black" points="378.5,-711 430.5,-711 "/>
<text text-anchor="middle" x="404.5" y="-694.4" font-family="Times Roman,serif" font-size="14.00">10g2</text>
<polyline fill="none" stroke="black" points="378.5,-685 430.5,-685 "/>
<text text-anchor="middle" x="404.5" y="-668.4" font-family="Times Roman,serif" font-size="14.00">1g1</text>
<polyline fill="none" stroke="black" points="378.5,-659 430.5,-659 "/>
<text text-anchor="middle" x="404.5" y="-642.4" font-family="Times Roman,serif" font-size="14.00">1g2</text>
<polyline fill="none" stroke="black" points="378.5,-633 430.5,-633 "/>
<text text-anchor="middle" x="404.5" y="-616.4" font-family="Times Roman,serif" font-size="14.00">ipmi</text>
</g>
<!-- burnupi&#45;&gt;slow -->
<g id="edge36" class="edge"><title>burnupi:1g1&#45;&gt;slow:front</title>
<path fill="none" stroke="green" d="M432,-672C461.115,-672 449.556,-628.935 431,-606.5 417.188,-589.801 240,-588.671 240,-567"/>
</g>
<!-- burnupi&#45;&gt;ipmi -->
<g id="edge19" class="edge"><title>burnupi:ipmi&#45;&gt;ipmi:sepia_ipmi</title>
<path fill="none" stroke="blue" d="M405,-607C405,-588.778 396,-585.222 396,-567"/>
</g>
<!-- vercoi -->
<g id="node3" class="node"><title>vercoi</title>
<polygon fill="none" stroke="black" points="133,-345 133,-475 265,-475 265,-345 133,-345"/>
<text text-anchor="middle" x="173" y="-406.4" font-family="Times Roman,serif" font-size="14.00">8x vercoi</text>
<polyline fill="none" stroke="black" points="213,-345 213,-475 "/>
<text text-anchor="middle" x="239" y="-458.4" font-family="Times Roman,serif" font-size="14.00">10g1</text>
<polyline fill="none" stroke="black" points="213,-449 265,-449 "/>
<text text-anchor="middle" x="239" y="-432.4" font-family="Times Roman,serif" font-size="14.00">10g2</text>
<polyline fill="none" stroke="black" points="213,-423 265,-423 "/>
<text text-anchor="middle" x="239" y="-406.4" font-family="Times Roman,serif" font-size="14.00">1g1</text>
<polyline fill="none" stroke="black" points="213,-397 265,-397 "/>
<text text-anchor="middle" x="239" y="-380.4" font-family="Times Roman,serif" font-size="14.00">1g2</text>
<polyline fill="none" stroke="black" points="213,-371 265,-371 "/>
<text text-anchor="middle" x="239" y="-354.4" font-family="Times Roman,serif" font-size="14.00">ipmi</text>
</g>
<!-- world -->
<g id="node9" class="node"><title>world</title>
<polygon fill="none" stroke="black" points="-0.5,-235 -0.5,-271 592.5,-271 592.5,-235 -0.5,-235"/>
<text text-anchor="middle" x="47.5" y="-249.4" font-family="Times Roman,serif" font-size="14.00">4948 world</text>
<polyline fill="none" stroke="black" points="95.5,-235 95.5,-271 "/>
<text text-anchor="middle" x="123.5" y="-249.4" font-family="Times Roman,serif" font-size="14.00">public</text>
<polyline fill="none" stroke="black" points="151.5,-235 151.5,-271 "/>
<text text-anchor="middle" x="176.5" y="-249.4" font-family="Times Roman,serif" font-size="14.00">front</text>
<polyline fill="none" stroke="black" points="201.5,-235 201.5,-271 "/>
<text text-anchor="middle" x="225.5" y="-249.4" font-family="Times Roman,serif" font-size="14.00">back</text>
<polyline fill="none" stroke="black" points="249.5,-235 249.5,-271 "/>
<text text-anchor="middle" x="292" y="-249.4" font-family="Times Roman,serif" font-size="14.00">sepia ipmi</text>
<polyline fill="none" stroke="black" points="334.5,-235 334.5,-271 "/>
<text text-anchor="middle" x="365.5" y="-249.4" font-family="Times Roman,serif" font-size="14.00">rescue</text>
<polyline fill="none" stroke="black" points="396.5,-235 396.5,-271 "/>
<text text-anchor="middle" x="466.5" y="-249.4" font-family="Times Roman,serif" font-size="14.00">switch mgmt vlan</text>
<polyline fill="none" stroke="black" points="536.5,-235 536.5,-271 "/>
<text text-anchor="middle" x="564.5" y="-249.4" font-family="Times Roman,serif" font-size="14.00">mgmt</text>
</g>
<!-- vercoi&#45;&gt;world -->
<g id="edge54" class="edge"><title>vercoi:1g2&#45;&gt;world:rescue</title>
<path fill="none" stroke="brown" d="M266,-384C309.23,-384 260.251,-320.387 291,-290 315.458,-265.829 366,-305.386 366,-271"/>
<text text-anchor="middle" x="354" y="-313.4" font-family="Times Roman,serif" font-size="14.00">hypervisor access,</text>
<text text-anchor="middle" x="354" y="-295.4" font-family="Times Roman,serif" font-size="14.00">hypervisor ipmi</text>
</g>
<!-- vercoi&#45;&gt;world -->
<g id="edge21" class="edge"><title>vercoi:ipmi&#45;&gt;world</title>
<path fill="none" stroke="blue" d="M239,-345C239,-319.138 244.138,-311.833 258,-290 262.343,-283.159 268.191,-276.649 273.995,-271.051"/>
</g>
<!-- vercoi&#45;&gt;slow -->
<g id="edge38" class="edge"><title>vercoi:1g1&#45;&gt;slow:front</title>
<path fill="none" stroke="green" d="M265,-410C294.111,-410 271.426,-447.107 265,-475.5 259.076,-501.675 239,-503.163 239,-530"/>
</g>
<!-- gw -->
<g id="node4" class="node"><title>gw</title>
<polygon fill="none" stroke="black" points="20,-101 20,-137 74,-137 74,-101 20,-101"/>
<text text-anchor="middle" x="47" y="-115.4" font-family="Times Roman,serif" font-size="14.00">gw</text>
</g>
<!-- gw&#45;&gt;world -->
<g id="edge49" class="edge"><title>gw&#45;&gt;world:trunk</title>
<path fill="none" stroke="black" stroke-dasharray="1,5" d="M51.1256,-137.036C53.6732,-149.118 56.6962,-165.423 58,-180 59.4254,-195.936 62.1504,-200.548 58,-216 55.4689,-225.424 47,-225.242 47,-235"/>
<text text-anchor="middle" x="123" y="-203.4" font-family="Times Roman,serif" font-size="14.00">serial console</text>
<text text-anchor="middle" x="123" y="-185.4" font-family="Times Roman,serif" font-size="14.00">to manage switch</text>
</g>
<!-- force10_tor -->
<g id="node5" class="node"><title>force10_tor</title>
<polygon fill="none" stroke="black" points="69.5,-777 69.5,-813 342.5,-813 342.5,-777 69.5,-777"/>
<text text-anchor="middle" x="154" y="-791.4" font-family="Times Roman,serif" font-size="14.00">4x force10 top&#45;of&#45;rack</text>
<polyline fill="none" stroke="black" points="238.5,-777 238.5,-813 "/>
<text text-anchor="middle" x="262.5" y="-791.4" font-family="Times Roman,serif" font-size="14.00">back</text>
<polyline fill="none" stroke="black" points="286.5,-777 286.5,-813 "/>
<text text-anchor="middle" x="314.5" y="-791.4" font-family="Times Roman,serif" font-size="14.00">mgmt</text>
</g>
<!-- force10_tor&#45;&gt;plana -->
<g id="edge7" class="edge"><title>force10_tor:back&#45;&gt;plana:10g1</title>
<path fill="none" stroke="#cdcd00" d="M263,-777C263,-760.216 246.25,-758.448 238.661,-748.468"/>
<polygon fill="#cdcd00" stroke="#cdcd00" points="238.649,-748.432 233.014,-743.932 235,-737 240.635,-741.5 238.649,-748.432"/>
</g>
<!-- force10_tor&#45;&gt;burnupi -->
<g id="edge9" class="edge"><title>force10_tor:back&#45;&gt;burnupi:10g1</title>
<path fill="none" stroke="#cdcd00" d="M263,-777C263,-716.171 385.218,-790.214 402.882,-748.878"/>
<polygon fill="#cdcd00" stroke="#cdcd00" points="402.894,-748.814 400.009,-742.205 405,-737 407.885,-743.609 402.894,-748.814"/>
</g>
<!-- force10_tor&#45;&gt;vercoi -->
<g id="edge11" class="edge"><title>force10_tor:tor&#45;&gt;vercoi:10g1</title>
<path fill="none" stroke="black" stroke-width="2" d="M65.1006,-785.182C57.857,-747.297 45.876,-608.82 99,-530 117.457,-502.616 133.295,-506.156 164,-494 192.1,-482.875 228.741,-503.191 237.203,-484.929"/>
<polygon fill="black" stroke="black" points="65.1677,-785.409 63.6843,-796.275 66.5839,-790.205 68,-795 68,-795 68,-795 66.5839,-790.205 72.3157,-793.725 65.1677,-785.409 65.1677,-785.409"/>
<polygon fill="black" stroke="black" points="237.219,-484.84 243.428,-475.801 238.11,-479.92 239,-475 239,-475 239,-475 238.11,-479.92 234.572,-474.199 237.219,-484.84 237.219,-484.84"/>
</g>
<!-- force10_tor&#45;&gt;world -->
<g id="edge25" class="edge"><title>force10_tor:mgmt&#45;&gt;world:switch_mgmt</title>
<path fill="none" stroke="red" d="M344,-795C446.092,-795 538,-774.092 538,-672 538,-672 538,-672 538,-410 538,-351.145 512.886,-340.099 482,-290 476.354,-280.842 467,-281.759 467,-271"/>
</g>
<!-- force10_interconnect -->
<g id="node6" class="node"><title>force10_interconnect</title>
<polygon fill="none" stroke="black" points="91.5,-853 91.5,-889 272.5,-889 272.5,-853 91.5,-853"/>
<text text-anchor="middle" x="154" y="-867.4" font-family="Times Roman,serif" font-size="14.00">2x force10 aggr</text>
<polyline fill="none" stroke="black" points="216.5,-853 216.5,-889 "/>
<text text-anchor="middle" x="244.5" y="-867.4" font-family="Times Roman,serif" font-size="14.00">mgmt</text>
</g>
<!-- force10_interconnect&#45;&gt;force10_tor -->
<g id="edge2" class="edge"><title>force10_interconnect:ic&#45;&gt;force10_tor:tor</title>
<path fill="none" stroke="black" stroke-width="2" d="M154,-842.968C154,-835.545 154,-830.486 154,-823.07"/>
<polygon fill="black" stroke="black" points="154,-843 149.5,-853 154,-848 154,-853 154,-853 154,-853 154,-848 158.5,-853 154,-843 154,-843"/>
<polygon fill="black" stroke="black" points="154,-823 158.5,-813 154,-818 154,-813 154,-813 154,-813 154,-818 149.5,-813 154,-823 154,-823"/>
</g>
<!-- force10_interconnect&#45;&gt;world -->
<g id="edge4" class="edge"><title>force10_interconnect:ic&#45;&gt;world:trunk</title>
<path fill="none" stroke="black" stroke-width="2" d="M79.9873,-870.15C48.668,-864.491 42,-831.361 42,-795 42,-795 42,-795 42,-410 42,-351.684 46.4496,-334.707 46.9537,-281.074"/>
<polygon fill="black" stroke="black" points="80.0358,-870.154 89.6195,-875.484 85.0179,-870.577 90,-871 90,-871 90,-871 85.0179,-870.577 90.3805,-866.516 80.0358,-870.154 80.0358,-870.154"/>
<polygon fill="black" stroke="black" points="46.9539,-281 51.5,-271.021 46.977,-276 47,-271 47,-271 47,-271 46.977,-276 42.5,-270.979 46.9539,-281 46.9539,-281"/>
</g>
<!-- force10_interconnect&#45;&gt;world -->
<g id="edge27" class="edge"><title>force10_interconnect:mgmt&#45;&gt;world:switch_mgmt</title>
<path fill="none" stroke="red" d="M274,-871C343.204,-871 576,-864.204 576,-795 576,-795 576,-795 576,-410 576,-348.699 556.408,-327.61 508,-290 492.14,-277.678 467,-291.084 467,-271"/>
</g>
<!-- world&#45;&gt;gw -->
<g id="edge43" class="edge"><title>world:trunk&#45;&gt;gw</title>
<path fill="none" stroke="black" stroke-width="2" d="M47,-224.707C47,-197.389 47,-167.989 47,-147.146"/>
<polygon fill="black" stroke="black" points="47.0001,-225 42.5,-235 47,-230 47,-235 47,-235 47,-235 47,-230 51.5,-235 47.0001,-225 47.0001,-225"/>
<polygon fill="black" stroke="black" points="47.0001,-147.083 51.5,-137.083 47,-142.083 47,-137.083 47,-137.083 47,-137.083 47,-142.083 42.5,-137.083 47.0001,-147.083 47.0001,-147.083"/>
</g>
<!-- world&#45;&gt;gw -->
<g id="edge45" class="edge"><title>world:pub&#45;&gt;gw</title>
<path fill="none" stroke="#ffa500" d="M123,-235C123,-197.59 181.723,-245.287 205,-216 214.955,-203.474 215.483,-192.087 205,-180 196.764,-170.503 160.969,-175.841 149,-172 122.208,-163.401 93.9861,-148.197 74.0374,-136.271"/>
</g>
<!-- some_router -->
<g id="node18" class="node"><title>some_router</title>
<polygon fill="none" stroke="black" points="161,-101 161,-137 265,-137 265,-101 161,-101"/>
<text text-anchor="middle" x="213" y="-115.4" font-family="Times Roman,serif" font-size="14.00">some_router</text>
</g>
<!-- world&#45;&gt;some_router -->
<g id="edge47" class="edge"><title>world:pub&#45;&gt;some_router</title>
<path fill="none" stroke="#ffa500" d="M123,-235C123,-186.701 198.976,-253.018 230,-216 248.559,-193.855 235.206,-158.675 223.986,-137.321"/>
</g>
<!-- sepia_ipmi -->
<g id="node24" class="node"><title>sepia_ipmi</title>
<polygon fill="none" stroke="black" points="283,-101 283,-137 371,-137 371,-101 283,-101"/>
<text text-anchor="middle" x="327" y="-115.4" font-family="Times Roman,serif" font-size="14.00">sepia_ipmi</text>
</g>
<!-- world&#45;&gt;sepia_ipmi -->
<g id="edge22" class="edge"><title>world&#45;&gt;sepia_ipmi</title>
<path fill="none" stroke="blue" d="M300.181,-234.928C306.097,-209.353 316.852,-162.865 322.786,-137.213"/>
</g>
<!-- slow&#45;&gt;vercoi -->
<g id="edge40" class="edge"><title>slow:tor&#45;&gt;vercoi:10g2</title>
<path fill="none" stroke="black" stroke-width="2" d="M161.497,-519.892C168.305,-500.3 197.094,-506.532 222,-494 240.585,-484.649 253.559,-492.877 265,-475.5 272.09,-464.732 278.234,-448.477 274.045,-440.601"/>
<polygon fill="black" stroke="black" points="161.465,-520.108 155.549,-529.341 160.732,-525.054 160,-530 160,-530 160,-530 160.732,-525.054 164.451,-530.659 161.465,-520.108 161.465,-520.108"/>
<polygon fill="black" stroke="black" points="273.913,-440.534 267.04,-431.989 269.457,-438.267 265,-436 265,-436 265,-436 269.457,-438.267 262.96,-440.011 273.913,-440.534 273.913,-440.534"/>
<text text-anchor="middle" x="231" y="-499.4" font-family="Times Roman,serif" font-size="14.00">1g</text>
</g>
<!-- slow&#45;&gt;world -->
<g id="edge29" class="edge"><title>slow:mgmt&#45;&gt;world:switch_mgmt</title>
<path fill="none" stroke="red" d="M322,-549C330.999,-549 325.32,-538.212 329,-530 330.667,-526.28 467,-275.076 467,-271"/>
</g>
<!-- slow&#45;&gt;world -->
<g id="edge13" class="edge"><title>slow:tor&#45;&gt;world:trunk</title>
<path fill="none" stroke="black" stroke-width="2" d="M95.979,-546.703C50.5637,-524.165 73.1062,-342.224 56,-290 54.5457,-285.56 52.2957,-283.146 50.4093,-280.674"/>
<polygon fill="black" stroke="black" points="96.2527,-546.766 104.995,-553.386 101.126,-547.883 106,-549 106,-549 106,-549 101.126,-547.883 107.005,-544.614 96.2527,-546.766 96.2527,-546.766"/>
<polygon fill="black" stroke="black" points="50.3238,-280.431 51.2442,-269.504 48.6619,-275.716 47,-271 47,-271 47,-271 48.6619,-275.716 42.7558,-272.496 50.3238,-280.431 50.3238,-280.431"/>
</g>
<!-- ipmi&#45;&gt;world -->
<g id="edge31" class="edge"><title>ipmi:mgmt&#45;&gt;world:switch_mgmt</title>
<path fill="none" stroke="red" d="M482,-531C482,-415.252 467,-386.748 467,-271"/>
</g>
<!-- office -->
<g id="node19" class="node"><title>office</title>
<polygon fill="none" stroke="black" points="258.826,-46.0224 213,-61.7248 167.174,-46.0224 167.217,-20.6152 258.783,-20.6152 258.826,-46.0224"/>
<text text-anchor="middle" x="213" y="-35.4" font-family="Times Roman,serif" font-size="14.00">office</text>
</g>
<!-- some_router&#45;&gt;office -->
<g id="edge51" class="edge"><title>some_router&#45;&gt;office</title>
<path fill="none" stroke="black" d="M213,-100.847C213,-89.2295 213,-74.0657 213,-61.6607"/>
</g>
</g>
</svg>
